<?xml version="1.0" encoding="UTF-8" ?>
<svg version="1.1" width="450" height="120" xmlns="http://www.w3.org/2000/svg" shape-rendering="crispEdges">
<rect x="127" y="0" width="5" height="34" fill="#482598" />
<rect x="276" y="2" width="61" height="2" fill="#482598" />
<rect x="8" y="3" width="67" height="3" fill="#04040A" />
<rect x="85" y="3" width="21" height="2" fill="#482598" />
<rect x="154" y="7" width="22" height="2" fill="#482598" />
<rect x="122" y="9" width="5" height="15" fill="#482598" />
<rect x="132" y="9" width="5" height="15" fill="#482598" />
<rect x="33" y="10" width="55" height="3" fill="#04040A" />
<rect x="309" y="10" width="18" height="2" fill="#482598" />
<rect x="327" y="10" width="123" height="2" fill="#04040A" />
<rect x="117" y="14" width="5" height="5" fill="#482598" />
<rect x="137" y="14" width="6" height="5" fill="#482598" />
<rect x="113" y="16" width="4" height="2" fill="#482598" />
<rect x="143" y="16" width="4" height="2" fill="#482598" />
<rect x="361" y="17" width="51" height="2" fill="#04040A" />
<rect x="422" y="18" width="28" height="2" fill="#04040A" />
<rect x="385" y="25" width="65" height="2" fill="#04040A" />
<rect x="10" y="29" width="48" height="3" fill="#04040A" />
<rect x="405" y="32" width="45" height="2" fill="#04040A" />
<rect x="418" y="47" width="5" height="12" fill="#482598" />
<rect x="444" y="47" width="2" height="13" fill="#482598" />
<rect x="385" y="51" width="8" height="6" fill="#04040A" />
<rect x="381" y="52" width="4" height="5" fill="#04040A" />
<rect x="439" y="52" width="5" height="2" fill="#482598" />
<rect x="446" y="52" width="4" height="2" fill="#482598" />
<rect x="378" y="53" width="3" height="6" fill="#04040A" />
<rect x="374" y="54" width="4" height="5" fill="#04040A" />
<rect x="371" y="55" width="3" height="5" fill="#04040A" />
<rect x="22" y="56" width="18" height="4" fill="#04040A" />
<rect x="45" y="56" width="20" height="4" fill="#04040A" />
<rect x="82" y="56" width="42" height="2" fill="#04040A" />
<rect x="367" y="56" width="4" height="4" fill="#04040A" />
<rect x="416" y="56" width="2" height="9" fill="#482598" />
<rect x="423" y="56" width="2" height="9" fill="#482598" />
<rect x="365" y="57" width="2" height="42" fill="#04040A" />
<rect x="381" y="57" width="3" height="1" fill="#04040A" />
<rect x="384" y="57" width="5" height="3" fill="#F5F5F3" />
<rect x="389" y="57" width="4" height="37" fill="#04040A" />
<rect x="82" y="58" width="2" height="37" fill="#04040A" />
<rect x="84" y="58" width="37" height="3" fill="#F5F5F3" />
<rect x="121" y="58" width="3" height="38" fill="#04040A" />
<rect x="381" y="58" width="1" height="1" fill="#04040A" />
<rect x="382" y="58" width="2" height="3" fill="#F5F5F3" />
<rect x="20" y="59" width="2" height="4" fill="#04040A" />
<rect x="40" y="59" width="5" height="4" fill="#04040A" />
<rect x="65" y="59" width="3" height="8" fill="#04040A" />
<rect x="124" y="59" width="213" height="4" fill="#04040A" />
<rect x="374" y="59" width="8" height="2" fill="#F5F5F3" />
<rect x="418" y="59" width="1" height="6" fill="#482598" />
<rect x="419" y="59" width="3" height="18" fill="#F5F5F3" />
<rect x="422" y="59" width="1" height="6" fill="#482598" />
<rect x="22" y="60" width="2" height="3" fill="#04040A" />
<rect x="24" y="60" width="14" height="3" fill="#482598" />
<rect x="38" y="60" width="2" height="3" fill="#04040A" />
<rect x="45" y="60" width="2" height="3" fill="#04040A" />
<rect x="47" y="60" width="15" height="3" fill="#482598" />
<rect x="62" y="60" width="3" height="3" fill="#04040A" />
<rect x="367" y="60" width="2" height="37" fill="#04040A" />
<rect x="369" y="60" width="5" height="3" fill="#F5F5F3" />
<rect x="384" y="60" width="5" height="3" fill="#04040A" />
<rect x="413" y="60" width="3" height="7" fill="#482598" />
<rect x="425" y="60" width="3" height="7" fill="#482598" />
<rect x="80" y="61" width="2" height="34" fill="#04040A" />
<rect x="84" y="61" width="2" height="33" fill="#F5F5F3" />
<rect x="86" y="61" width="33" height="2" fill="#04040A" />
<rect x="119" y="61" width="2" height="30" fill="#F5F5F3" />
<rect x="337" y="61" width="6" height="2" fill="#04040A" />
<rect x="374" y="61" width="3" height="1" fill="#F5F5F3" />
<rect x="377" y="61" width="7" height="3" fill="#04040A" />
<rect x="374" y="62" width="1" height="1" fill="#F5F5F3" />
<rect x="375" y="62" width="2" height="3" fill="#04040A" />
<rect x="16" y="63" width="4" height="4" fill="#04040A" />
<rect x="20" y="63" width="6" height="4" fill="#482598" />
<rect x="26" y="63" width="10" height="4" fill="#F5F5F3" />
<rect x="36" y="63" width="13" height="4" fill="#482598" />
<rect x="49" y="63" width="9" height="4" fill="#F5F5F3" />
<rect x="58" y="63" width="7" height="4" fill="#482598" />
<rect x="68" y="63" width="1" height="19" fill="#04040A" />
<rect x="86" y="63" width="2" height="28" fill="#04040A" />
<rect x="88" y="63" width="29" height="3" fill="#482598" />
<rect x="117" y="63" width="2" height="28" fill="#04040A" />
<rect x="124" y="63" width="214" height="4" fill="#F5F5F3" />
<rect x="338" y="63" width="5" height="24" fill="#04040A" />
<rect x="369" y="63" width="6" height="3" fill="#04040A" />
<rect x="384" y="63" width="3" height="1" fill="#04040A" />
<rect x="377" y="64" width="4" height="1" fill="#04040A" />
<rect x="409" y="64" width="4" height="3" fill="#482598" />
<rect x="428" y="64" width="5" height="3" fill="#482598" />
<rect x="416" y="65" width="3" height="7" fill="#F5F5F3" />
<rect x="422" y="65" width="3" height="7" fill="#F5F5F3" />
<rect x="69" y="66" width="3" height="16" fill="#04040A" />
<rect x="88" y="66" width="8" height="23" fill="#482598" />
<rect x="96" y="66" width="2" height="19" fill="#04040A" />
<rect x="98" y="66" width="19" height="1" fill="#482598" />
<rect x="369" y="66" width="5" height="3" fill="#04040A" />
<rect x="400" y="66" width="9" height="4" fill="#482598" />
<rect x="433" y="66" width="8" height="4" fill="#482598" />
<rect x="14" y="67" width="4" height="14" fill="#04040A" />
<rect x="18" y="67" width="5" height="10" fill="#482598" />
<rect x="23" y="67" width="4" height="4" fill="#F5F5F3" />
<rect x="27" y="67" width="5" height="20" fill="#482598" />
<rect x="32" y="67" width="8" height="4" fill="#F5F5F3" />
<rect x="40" y="67" width="4" height="4" fill="#482598" />
<rect x="44" y="67" width="5" height="4" fill="#F5F5F3" />
<rect x="49" y="67" width="7" height="19" fill="#482598" />
<rect x="56" y="67" width="6" height="4" fill="#F5F5F3" />
<rect x="62" y="67" width="4" height="11" fill="#482598" />
<rect x="66" y="67" width="2" height="3" fill="#04040A" />
<rect x="98" y="67" width="1" height="3" fill="#04040A" />
<rect x="99" y="67" width="18" height="1" fill="#482598" />
<rect x="124" y="67" width="3" height="18" fill="#F5F5F3" />
<rect x="127" y="67" width="137" height="4" fill="#601DAD" />
<rect x="264" y="67" width="74" height="2" fill="#F5F5F3" />
<rect x="409" y="67" width="3" height="5" fill="#482598" />
<rect x="412" y="67" width="4" height="3" fill="#F5F5F3" />
<rect x="425" y="67" width="5" height="3" fill="#F5F5F3" />
<rect x="430" y="67" width="3" height="5" fill="#482598" />
<rect x="99" y="68" width="2" height="2" fill="#04040A" />
<rect x="101" y="68" width="16" height="1" fill="#482598" />
<rect x="101" y="69" width="2" height="3" fill="#04040A" />
<rect x="103" y="69" width="14" height="1" fill="#482598" />
<rect x="264" y="69" width="48" height="2" fill="#F5F5F3" />
<rect x="312" y="69" width="4" height="14" fill="#04040A" />
<rect x="316" y="69" width="22" height="2" fill="#F5F5F3" />
<rect x="66" y="70" width="2" height="8" fill="#482598" />
<rect x="98" y="70" width="2" height="11" fill="#F5F5F3" />
<rect x="100" y="70" width="1" height="1" fill="#04040A" />
<rect x="103" y="70" width="1" height="3" fill="#04040A" />
<rect x="104" y="70" width="13" height="1" fill="#482598" />
<rect x="412" y="70" width="4" height="2" fill="#482598" />
<rect x="425" y="70" width="5" height="2" fill="#482598" />
<rect x="23" y="71" width="4" height="11" fill="#482598" />
<rect x="32" y="71" width="8" height="19" fill="#482598" />
<rect x="40" y="71" width="4" height="4" fill="#F5F5F3" />
<rect x="44" y="71" width="5" height="23" fill="#482598" />
<rect x="56" y="71" width="6" height="11" fill="#482598" />
<rect x="100" y="71" width="1" height="9" fill="#F5F5F3" />
<rect x="104" y="71" width="2" height="3" fill="#04040A" />
<rect x="106" y="71" width="11" height="1" fill="#482598" />
<rect x="127" y="71" width="137" height="4" fill="#04040A" />
<rect x="264" y="71" width="48" height="4" fill="#482598" />
<rect x="316" y="71" width="2" height="10" fill="#04040A" />
<rect x="318" y="71" width="14" height="4" fill="#482598" />
<rect x="332" y="71" width="6" height="14" fill="#F5F5F3" />
<rect x="101" y="72" width="2" height="7" fill="#F5F5F3" />
<rect x="106" y="72" width="1" height="3" fill="#04040A" />
<rect x="107" y="72" width="10" height="1" fill="#482598" />
<rect x="413" y="72" width="6" height="4" fill="#482598" />
<rect x="422" y="72" width="6" height="4" fill="#482598" />
<rect x="103" y="73" width="1" height="6" fill="#F5F5F3" />
<rect x="107" y="73" width="2" height="6" fill="#04040A" />
<rect x="109" y="73" width="8" height="1" fill="#482598" />
<rect x="104" y="74" width="2" height="3" fill="#F5F5F3" />
<rect x="109" y="74" width="2" height="3" fill="#04040A" />
<rect x="111" y="74" width="6" height="1" fill="#482598" />
<rect x="40" y="75" width="4" height="23" fill="#482598" />
<rect x="106" y="75" width="1" height="2" fill="#F5F5F3" />
<rect x="111" y="75" width="1" height="2" fill="#04040A" />
<rect x="112" y="75" width="5" height="14" fill="#482598" />
<rect x="127" y="75" width="137" height="2" fill="#482598" />
<rect x="264" y="75" width="48" height="2" fill="#F5F5F3" />
<rect x="318" y="75" width="14" height="2" fill="#F5F5F3" />
<rect x="418" y="76" width="1" height="13" fill="#482598" />
<rect x="422" y="76" width="1" height="13" fill="#482598" />
<rect x="18" y="77" width="5" height="4" fill="#04040A" />
<rect x="104" y="77" width="1" height="1" fill="#F5F5F3" />
<rect x="105" y="77" width="2" height="3" fill="#04040A" />
<rect x="109" y="77" width="1" height="1" fill="#04040A" />
<rect x="110" y="77" width="2" height="12" fill="#482598" />
<rect x="127" y="77" width="137" height="5" fill="#04040A" />
<rect x="264" y="77" width="48" height="4" fill="#482598" />
<rect x="318" y="77" width="14" height="4" fill="#482598" />
<rect x="419" y="77" width="3" height="12" fill="#482598" />
<rect x="62" y="78" width="3" height="4" fill="#482598" />
<rect x="65" y="78" width="3" height="4" fill="#04040A" />
<rect x="104" y="78" width="1" height="3" fill="#04040A" />
<rect x="109" y="78" width="1" height="11" fill="#482598" />
<rect x="101" y="79" width="1" height="1" fill="#F5F5F3" />
<rect x="102" y="79" width="2" height="3" fill="#04040A" />
<rect x="107" y="79" width="2" height="10" fill="#482598" />
<rect x="381" y="79" width="8" height="3" fill="#04040A" />
<rect x="393" y="79" width="1" height="14" fill="#04040A" />
<rect x="100" y="80" width="2" height="3" fill="#04040A" />
<rect x="105" y="80" width="2" height="9" fill="#482598" />
<rect x="19" y="81" width="4" height="3" fill="#04040A" />
<rect x="98" y="81" width="2" height="3" fill="#04040A" />
<rect x="104" y="81" width="1" height="8" fill="#482598" />
<rect x="264" y="81" width="48" height="4" fill="#F5F5F3" />
<rect x="316" y="81" width="16" height="4" fill="#F5F5F3" />
<rect x="378" y="81" width="3" height="4" fill="#04040A" />
<rect x="23" y="82" width="4" height="9" fill="#04040A" />
<rect x="56" y="82" width="4" height="4" fill="#482598" />
<rect x="60" y="82" width="6" height="4" fill="#04040A" />
<rect x="102" y="82" width="2" height="7" fill="#482598" />
<rect x="127" y="82" width="137" height="3" fill="#F5F5F3" />
<rect x="381" y="82" width="2" height="1" fill="#04040A" />
<rect x="383" y="82" width="6" height="2" fill="#F5F5F3" />
<rect x="100" y="83" width="1" height="1" fill="#04040A" />
<rect x="101" y="83" width="1" height="6" fill="#482598" />
<rect x="312" y="83" width="4" height="2" fill="#F5F5F3" />
<rect x="357" y="83" width="8" height="4" fill="#04040A" />
<rect x="381" y="83" width="2" height="2" fill="#F5F5F3" />
<rect x="98" y="84" width="1" height="1" fill="#04040A" />
<rect x="99" y="84" width="2" height="5" fill="#482598" />
<rect x="375" y="84" width="3" height="11" fill="#04040A" />
<rect x="383" y="84" width="1" height="1" fill="#F5F5F3" />
<rect x="384" y="84" width="5" height="13" fill="#04040A" />
<rect x="96" y="85" width="3" height="4" fill="#482598" />
<rect x="124" y="85" width="214" height="5" fill="#04040A" />
<rect x="352" y="85" width="5" height="4" fill="#04040A" />
<rect x="378" y="85" width="1" height="10" fill="#04040A" />
<rect x="379" y="85" width="2" height="2" fill="#F5F5F3" />
<rect x="381" y="85" width="3" height="12" fill="#04040A" />
<rect x="49" y="86" width="6" height="4" fill="#482598" />
<rect x="55" y="86" width="6" height="4" fill="#04040A" />
<rect x="27" y="87" width="4" height="4" fill="#04040A" />
<rect x="31" y="87" width="1" height="3" fill="#482598" />
<rect x="338" y="87" width="1" height="3" fill="#04040A" />
<rect x="357" y="87" width="5" height="2" fill="#F5F5F3" />
<rect x="362" y="87" width="3" height="12" fill="#04040A" />
<rect x="379" y="87" width="2" height="8" fill="#04040A" />
<rect x="349" y="88" width="3" height="9" fill="#04040A" />
<rect x="88" y="89" width="29" height="2" fill="#04040A" />
<rect x="352" y="89" width="2" height="10" fill="#04040A" />
<rect x="354" y="89" width="4" height="2" fill="#F5F5F3" />
<rect x="358" y="89" width="4" height="13" fill="#04040A" />
<rect x="31" y="90" width="4" height="4" fill="#04040A" />
<rect x="35" y="90" width="5" height="4" fill="#482598" />
<rect x="49" y="90" width="1" height="4" fill="#482598" />
<rect x="50" y="90" width="7" height="4" fill="#04040A" />
<rect x="30" y="91" width="1" height="3" fill="#04040A" />
<rect x="86" y="91" width="34" height="3" fill="#F5F5F3" />
<rect x="120" y="91" width="1" height="8" fill="#04040A" />
<rect x="354" y="91" width="3" height="1" fill="#F5F5F3" />
<rect x="357" y="91" width="1" height="11" fill="#04040A" />
<rect x="354" y="92" width="3" height="7" fill="#04040A" />
<rect x="34" y="94" width="5" height="4" fill="#04040A" />
<rect x="39" y="94" width="1" height="4" fill="#482598" />
<rect x="44" y="94" width="2" height="4" fill="#482598" />
<rect x="46" y="94" width="5" height="4" fill="#04040A" />
<rect x="84" y="94" width="36" height="5" fill="#04040A" />
<rect x="389" y="94" width="2" height="3" fill="#04040A" />
<rect x="83" y="95" width="1" height="4" fill="#04040A" />
<rect x="135" y="95" width="200" height="2" fill="#04040A" />
<rect x="403" y="95" width="38" height="3" fill="#04040A" />
<rect x="350" y="97" width="2" height="2" fill="#04040A" />
<rect x="38" y="98" width="9" height="5" fill="#04040A" />
<rect x="355" y="99" width="2" height="3" fill="#04040A" />
<rect x="362" y="99" width="2" height="3" fill="#04040A" />
<rect x="70" y="107" width="30" height="4" fill="#04040A" />
</svg>