<?xml version="1.0" encoding="UTF-8" ?>
<svg version="1.1" width="750" height="219" xmlns="http://www.w3.org/2000/svg" shape-rendering="crispEdges">
<rect x="203" y="66" width="341" height="8" fill="#02020C" />
<rect x="159" y="72" width="7" height="4" fill="#2F3048" />
<rect x="585" y="72" width="6" height="4" fill="#2F3048" />
<rect x="203" y="74" width="10" height="8" fill="#02020C" />
<rect x="213" y="74" width="322" height="8" fill="#FBF8FB" />
<rect x="535" y="74" width="9" height="9" fill="#02020C" />
<rect x="108" y="75" width="6" height="26" fill="#2F3048" />
<rect x="632" y="76" width="6" height="24" fill="#2F3048" />
<rect x="544" y="78" width="11" height="68" fill="#02020C" />
<rect x="571" y="78" width="6" height="14" fill="#2F3048" />
<rect x="170" y="79" width="7" height="13" fill="#2F3048" />
<rect x="194" y="79" width="9" height="67" fill="#02020C" />
<rect x="166" y="82" width="4" height="4" fill="#2F3048" />
<rect x="177" y="82" width="5" height="4" fill="#2F3048" />
<rect x="203" y="82" width="1" height="76" fill="#02020C" />
<rect x="204" y="82" width="17" height="8" fill="#FBF8FB" />
<rect x="221" y="82" width="308" height="10" fill="#07051A" />
<rect x="529" y="82" width="6" height="8" fill="#FBF8FB" />
<rect x="567" y="82" width="4" height="4" fill="#2F3048" />
<rect x="577" y="82" width="4" height="4" fill="#2F3048" />
<rect x="535" y="83" width="9" height="7" fill="#FBF8FB" />
<rect x="204" y="90" width="10" height="48" fill="#FBF8FB" />
<rect x="214" y="90" width="7" height="39" fill="#07051A" />
<rect x="529" y="90" width="7" height="39" fill="#07051A" />
<rect x="536" y="90" width="8" height="47" fill="#FBF8FB" />
<rect x="221" y="92" width="183" height="1" fill="#07051A" />
<rect x="404" y="92" width="10" height="35" fill="#FBF8FB" />
<rect x="414" y="92" width="10" height="6" fill="#07051A" />
<rect x="424" y="92" width="18" height="8" fill="#FBF8FB" />
<rect x="442" y="92" width="10" height="7" fill="#07051A" />
<rect x="452" y="92" width="21" height="8" fill="#FBF8FB" />
<rect x="473" y="92" width="11" height="7" fill="#07051A" />
<rect x="484" y="92" width="25" height="8" fill="#FBF8FB" />
<rect x="509" y="92" width="20" height="45" fill="#07051A" />
<rect x="221" y="93" width="21" height="6" fill="#07051A" />
<rect x="242" y="93" width="20" height="6" fill="#FBF8FB" />
<rect x="262" y="93" width="12" height="6" fill="#07051A" />
<rect x="274" y="93" width="16" height="6" fill="#FBF8FB" />
<rect x="290" y="93" width="11" height="6" fill="#07051A" />
<rect x="301" y="93" width="10" height="34" fill="#FBF8FB" />
<rect x="311" y="93" width="14" height="6" fill="#07051A" />
<rect x="325" y="93" width="9" height="34" fill="#FBF8FB" />
<rect x="334" y="93" width="6" height="44" fill="#07051A" />
<rect x="340" y="93" width="25" height="6" fill="#FBF8FB" />
<rect x="365" y="93" width="16" height="44" fill="#07051A" />
<rect x="381" y="93" width="9" height="34" fill="#FBF8FB" />
<rect x="390" y="93" width="14" height="6" fill="#07051A" />
<rect x="102" y="95" width="6" height="15" fill="#2F3048" />
<rect x="114" y="95" width="8" height="15" fill="#2F3048" />
<rect x="626" y="95" width="6" height="15" fill="#2F3048" />
<rect x="638" y="95" width="7" height="14" fill="#2F3048" />
<rect x="414" y="98" width="6" height="39" fill="#07051A" />
<rect x="420" y="98" width="4" height="23" fill="#FBF8FB" />
<rect x="221" y="99" width="15" height="38" fill="#07051A" />
<rect x="236" y="99" width="9" height="22" fill="#FBF8FB" />
<rect x="245" y="99" width="23" height="8" fill="#07051A" />
<rect x="268" y="99" width="10" height="28" fill="#FBF8FB" />
<rect x="278" y="99" width="8" height="12" fill="#07051A" />
<rect x="286" y="99" width="9" height="28" fill="#FBF8FB" />
<rect x="295" y="99" width="6" height="38" fill="#07051A" />
<rect x="311" y="99" width="4" height="9" fill="#FBF8FB" />
<rect x="315" y="99" width="6" height="5" fill="#07051A" />
<rect x="321" y="99" width="4" height="10" fill="#FBF8FB" />
<rect x="340" y="99" width="10" height="28" fill="#FBF8FB" />
<rect x="350" y="99" width="15" height="8" fill="#07051A" />
<rect x="390" y="99" width="5" height="10" fill="#FBF8FB" />
<rect x="395" y="99" width="4" height="5" fill="#07051A" />
<rect x="399" y="99" width="5" height="10" fill="#FBF8FB" />
<rect x="442" y="99" width="5" height="22" fill="#FBF8FB" />
<rect x="447" y="99" width="5" height="38" fill="#07051A" />
<rect x="473" y="99" width="6" height="22" fill="#FBF8FB" />
<rect x="479" y="99" width="5" height="38" fill="#07051A" />
<rect x="424" y="100" width="5" height="27" fill="#FBF8FB" />
<rect x="429" y="100" width="9" height="20" fill="#07051A" />
<rect x="438" y="100" width="4" height="27" fill="#FBF8FB" />
<rect x="452" y="100" width="10" height="27" fill="#FBF8FB" />
<rect x="462" y="100" width="8" height="20" fill="#07051A" />
<rect x="470" y="100" width="3" height="27" fill="#FBF8FB" />
<rect x="484" y="100" width="10" height="27" fill="#FBF8FB" />
<rect x="494" y="100" width="15" height="7" fill="#07051A" />
<rect x="96" y="101" width="6" height="9" fill="#2F3048" />
<rect x="108" y="101" width="1" height="9" fill="#2F3048" />
<rect x="113" y="101" width="1" height="9" fill="#2F3048" />
<rect x="122" y="101" width="5" height="9" fill="#2F3048" />
<rect x="645" y="101" width="5" height="8" fill="#2F3048" />
<rect x="620" y="102" width="6" height="8" fill="#2F3048" />
<rect x="315" y="104" width="6" height="10" fill="#FBF8FB" />
<rect x="395" y="104" width="4" height="10" fill="#FBF8FB" />
<rect x="83" y="107" width="13" height="9" fill="#2F3048" />
<rect x="127" y="107" width="15" height="9" fill="#2F3048" />
<rect x="245" y="107" width="6" height="13" fill="#07051A" />
<rect x="251" y="107" width="12" height="6" fill="#FBF8FB" />
<rect x="263" y="107" width="5" height="30" fill="#07051A" />
<rect x="350" y="107" width="11" height="6" fill="#FBF8FB" />
<rect x="361" y="107" width="4" height="13" fill="#07051A" />
<rect x="494" y="107" width="11" height="7" fill="#FBF8FB" />
<rect x="505" y="107" width="4" height="13" fill="#07051A" />
<rect x="607" y="107" width="13" height="10" fill="#2F3048" />
<rect x="650" y="107" width="16" height="9" fill="#2F3048" />
<rect x="311" y="108" width="4" height="29" fill="#07051A" />
<rect x="321" y="109" width="4" height="28" fill="#07051A" />
<rect x="390" y="109" width="4" height="28" fill="#07051A" />
<rect x="394" y="109" width="1" height="5" fill="#FBF8FB" />
<rect x="399" y="109" width="1" height="5" fill="#FBF8FB" />
<rect x="400" y="109" width="4" height="28" fill="#07051A" />
<rect x="646" y="109" width="4" height="12" fill="#2F3048" />
<rect x="1" y="110" width="82" height="6" fill="#2F3048" />
<rect x="96" y="110" width="4" height="11" fill="#2F3048" />
<rect x="123" y="110" width="4" height="12" fill="#2F3048" />
<rect x="142" y="110" width="52" height="6" fill="#2F3048" />
<rect x="620" y="110" width="3" height="11" fill="#2F3048" />
<rect x="666" y="110" width="81" height="6" fill="#2F3048" />
<rect x="278" y="111" width="8" height="7" fill="#FBF8FB" />
<rect x="555" y="111" width="52" height="6" fill="#2F3048" />
<rect x="251" y="113" width="3" height="7" fill="#07051A" />
<rect x="254" y="113" width="9" height="14" fill="#FBF8FB" />
<rect x="350" y="113" width="11" height="7" fill="#07051A" />
<rect x="315" y="114" width="6" height="23" fill="#07051A" />
<rect x="394" y="114" width="6" height="23" fill="#07051A" />
<rect x="494" y="114" width="11" height="6" fill="#07051A" />
<rect x="100" y="115" width="7" height="12" fill="#2F3048" />
<rect x="114" y="115" width="9" height="7" fill="#2F3048" />
<rect x="623" y="115" width="9" height="6" fill="#2F3048" />
<rect x="638" y="115" width="8" height="13" fill="#2F3048" />
<rect x="93" y="116" width="3" height="5" fill="#2F3048" />
<rect x="127" y="116" width="1" height="6" fill="#2F3048" />
<rect x="650" y="116" width="5" height="5" fill="#2F3048" />
<rect x="617" y="117" width="3" height="4" fill="#2F3048" />
<rect x="278" y="118" width="8" height="19" fill="#07051A" />
<rect x="245" y="120" width="9" height="7" fill="#FBF8FB" />
<rect x="350" y="120" width="15" height="7" fill="#FBF8FB" />
<rect x="429" y="120" width="9" height="7" fill="#FBF8FB" />
<rect x="462" y="120" width="8" height="7" fill="#FBF8FB" />
<rect x="494" y="120" width="15" height="7" fill="#FBF8FB" />
<rect x="236" y="121" width="6" height="16" fill="#07051A" />
<rect x="242" y="121" width="3" height="6" fill="#FBF8FB" />
<rect x="420" y="121" width="4" height="16" fill="#07051A" />
<rect x="442" y="121" width="5" height="16" fill="#07051A" />
<rect x="473" y="121" width="1" height="6" fill="#FBF8FB" />
<rect x="474" y="121" width="5" height="16" fill="#07051A" />
<rect x="624" y="121" width="8" height="6" fill="#2F3048" />
<rect x="114" y="122" width="7" height="6" fill="#2F3048" />
<rect x="107" y="124" width="7" height="22" fill="#2F3048" />
<rect x="632" y="125" width="6" height="21" fill="#2F3048" />
<rect x="242" y="127" width="21" height="10" fill="#07051A" />
<rect x="268" y="127" width="10" height="10" fill="#07051A" />
<rect x="286" y="127" width="9" height="10" fill="#07051A" />
<rect x="301" y="127" width="10" height="10" fill="#07051A" />
<rect x="325" y="127" width="9" height="10" fill="#07051A" />
<rect x="340" y="127" width="25" height="10" fill="#07051A" />
<rect x="381" y="127" width="9" height="10" fill="#07051A" />
<rect x="404" y="127" width="10" height="10" fill="#07051A" />
<rect x="424" y="127" width="18" height="10" fill="#07051A" />
<rect x="452" y="127" width="22" height="10" fill="#07051A" />
<rect x="484" y="127" width="25" height="10" fill="#07051A" />
<rect x="214" y="129" width="7" height="16" fill="#FBF8FB" />
<rect x="529" y="129" width="1" height="8" fill="#07051A" />
<rect x="530" y="129" width="6" height="8" fill="#FBF8FB" />
<rect x="221" y="137" width="313" height="8" fill="#FBF8FB" />
<rect x="534" y="137" width="10" height="21" fill="#02020C" />
<rect x="170" y="138" width="7" height="12" fill="#2F3048" />
<rect x="204" y="138" width="10" height="20" fill="#02020C" />
<rect x="569" y="138" width="8" height="6" fill="#2F3048" />
<rect x="577" y="143" width="6" height="4" fill="#2F3048" />
<rect x="166" y="144" width="4" height="4" fill="#2F3048" />
<rect x="572" y="144" width="5" height="6" fill="#2F3048" />
<rect x="214" y="145" width="320" height="13" fill="#02020C" />
<rect x="544" y="146" width="1" height="12" fill="#02020C" />
<rect x="577" y="147" width="1" height="3" fill="#2F3048" />
</svg>