<?xml version="1.0" encoding="UTF-8" ?>
<svg version="1.1" width="819" height="149" xmlns="http://www.w3.org/2000/svg" shape-rendering="crispEdges">
<rect x="437" y="12" width="6" height="29" fill="#482598" />
<rect x="387" y="14" width="8" height="6" fill="#482598" />
<rect x="375" y="15" width="6" height="6" fill="#482598" />
<rect x="427" y="15" width="10" height="7" fill="#482598" />
<rect x="418" y="17" width="9" height="6" fill="#482598" />
<rect x="381" y="18" width="6" height="8" fill="#482598" />
<rect x="395" y="18" width="4" height="13" fill="#482598" />
<rect x="338" y="19" width="8" height="29" fill="#482598" />
<rect x="370" y="19" width="5" height="13" fill="#482598" />
<rect x="474" y="19" width="7" height="29" fill="#482598" />
<rect x="393" y="20" width="2" height="17" fill="#482598" />
<rect x="375" y="21" width="1" height="17" fill="#482598" />
<rect x="427" y="22" width="7" height="1" fill="#482598" />
<rect x="418" y="23" width="6" height="23" fill="#482598" />
<rect x="333" y="26" width="5" height="16" fill="#482598" />
<rect x="346" y="26" width="5" height="16" fill="#482598" />
<rect x="470" y="27" width="4" height="15" fill="#482598" />
<rect x="481" y="27" width="6" height="15" fill="#482598" />
<rect x="389" y="28" width="4" height="9" fill="#482598" />
<rect x="376" y="29" width="5" height="9" fill="#482598" />
<rect x="327" y="31" width="6" height="6" fill="#482598" />
<rect x="351" y="31" width="7" height="6" fill="#482598" />
<rect x="463" y="31" width="7" height="6" fill="#482598" />
<rect x="487" y="31" width="7" height="6" fill="#482598" />
<rect x="430" y="33" width="7" height="11" fill="#482598" />
<rect x="414" y="35" width="4" height="11" fill="#482598" />
<rect x="381" y="37" width="9" height="6" fill="#482598" />
<rect x="468" y="37" width="2" height="5" fill="#482598" />
<rect x="379" y="38" width="2" height="5" fill="#482598" />
<rect x="412" y="38" width="2" height="6" fill="#482598" />
<rect x="437" y="41" width="3" height="3" fill="#482598" />
<rect x="19" y="78" width="783" height="9" fill="#02020C" />
<rect x="13" y="84" width="6" height="37" fill="#02020C" />
<rect x="802" y="84" width="5" height="41" fill="#02020C" />
<rect x="19" y="87" width="13" height="5" fill="#02020C" />
<rect x="787" y="87" width="15" height="5" fill="#02020C" />
<rect x="9" y="91" width="4" height="30" fill="#02020C" />
<rect x="807" y="91" width="4" height="30" fill="#02020C" />
<rect x="19" y="92" width="1" height="44" fill="#02020C" />
<rect x="800" y="92" width="2" height="33" fill="#02020C" />
<rect x="32" y="93" width="754" height="22" fill="#482598" />
<rect x="20" y="116" width="12" height="20" fill="#02020C" />
<rect x="788" y="116" width="12" height="20" fill="#02020C" />
<rect x="14" y="121" width="5" height="6" fill="#02020C" />
<rect x="32" y="125" width="756" height="11" fill="#02020C" />
<rect x="18" y="127" width="1" height="9" fill="#02020C" />
</svg>