<?xml version="1.0" encoding="UTF-8" ?>
<svg version="1.1" width="100" height="260" xmlns="http://www.w3.org/2000/svg" shape-rendering="crispEdges">
<rect x="64" y="8" width="7" height="3" fill="#482598" />
<rect x="39" y="10" width="12" height="3" fill="#482598" />
<rect x="71" y="10" width="13" height="2" fill="#482598" />
<rect x="64" y="11" width="2" height="10" fill="#482598" />
<rect x="66" y="11" width="4" height="3" fill="#F5F5F3" />
<rect x="70" y="11" width="1" height="1" fill="#482598" />
<rect x="70" y="12" width="2" height="3" fill="#F5F5F3" />
<rect x="72" y="12" width="12" height="1" fill="#482598" />
<rect x="72" y="13" width="9" height="2" fill="#F5F5F3" />
<rect x="81" y="13" width="9" height="2" fill="#482598" />
<rect x="66" y="14" width="4" height="5" fill="#482598" />
<rect x="62" y="15" width="2" height="16" fill="#482598" />
<rect x="70" y="15" width="6" height="6" fill="#482598" />
<rect x="76" y="15" width="12" height="2" fill="#F5F5F3" />
<rect x="88" y="15" width="2" height="19" fill="#482598" />
<rect x="30" y="16" width="17" height="3" fill="#482598" />
<rect x="76" y="17" width="8" height="6" fill="#482598" />
<rect x="84" y="17" width="4" height="1" fill="#F5F5F3" />
<rect x="84" y="18" width="4" height="8" fill="#482598" />
<rect x="67" y="19" width="3" height="1" fill="#482598" />
<rect x="73" y="21" width="3" height="1" fill="#482598" />
<rect x="61" y="22" width="1" height="18" fill="#482598" />
<rect x="78" y="23" width="6" height="1" fill="#482598" />
<rect x="81" y="24" width="3" height="1" fill="#482598" />
<rect x="85" y="26" width="3" height="8" fill="#482598" />
<rect x="60" y="28" width="1" height="18" fill="#482598" />
<rect x="83" y="29" width="2" height="18" fill="#482598" />
<rect x="46" y="31" width="9" height="3" fill="#482598" />
<rect x="44" y="32" width="2" height="4" fill="#482598" />
<rect x="55" y="32" width="4" height="3" fill="#482598" />
<rect x="59" y="33" width="1" height="13" fill="#482598" />
<rect x="43" y="34" width="1" height="10" fill="#482598" />
<rect x="46" y="34" width="2" height="2" fill="#482598" />
<rect x="48" y="34" width="5" height="3" fill="#F5F5F3" />
<rect x="53" y="34" width="2" height="1" fill="#482598" />
<rect x="85" y="34" width="2" height="13" fill="#482598" />
<rect x="53" y="35" width="3" height="2" fill="#F5F5F3" />
<rect x="56" y="35" width="3" height="11" fill="#482598" />
<rect x="42" y="36" width="1" height="8" fill="#482598" />
<rect x="44" y="36" width="1" height="10" fill="#482598" />
<rect x="45" y="36" width="3" height="2" fill="#F5F5F3" />
<rect x="73" y="36" width="6" height="4" fill="#482598" />
<rect x="48" y="37" width="2" height="1" fill="#F5F5F3" />
<rect x="50" y="37" width="6" height="10" fill="#482598" />
<rect x="72" y="37" width="1" height="5" fill="#482598" />
<rect x="79" y="37" width="3" height="4" fill="#482598" />
<rect x="41" y="38" width="1" height="6" fill="#482598" />
<rect x="45" y="38" width="5" height="10" fill="#482598" />
<rect x="70" y="38" width="2" height="4" fill="#482598" />
<rect x="82" y="38" width="1" height="14" fill="#482598" />
<rect x="67" y="39" width="3" height="10" fill="#482598" />
<rect x="73" y="40" width="6" height="2" fill="#F5F5F3" />
<rect x="79" y="41" width="1" height="2" fill="#F5F5F3" />
<rect x="80" y="41" width="2" height="11" fill="#482598" />
<rect x="70" y="42" width="5" height="2" fill="#F5F5F3" />
<rect x="75" y="42" width="2" height="12" fill="#482598" />
<rect x="77" y="42" width="2" height="1" fill="#F5F5F3" />
<rect x="77" y="43" width="3" height="9" fill="#482598" />
<rect x="70" y="44" width="5" height="10" fill="#482598" />
<rect x="56" y="46" width="1" height="1" fill="#482598" />
<rect x="65" y="46" width="2" height="2" fill="#482598" />
<rect x="50" y="47" width="5" height="1" fill="#482598" />
<rect x="83" y="47" width="1" height="2" fill="#482598" />
<rect x="68" y="49" width="2" height="3" fill="#482598" />
<rect x="77" y="52" width="2" height="2" fill="#482598" />
<rect x="27" y="53" width="3" height="17" fill="#482598" />
<rect x="22" y="60" width="5" height="4" fill="#482598" />
<rect x="30" y="60" width="6" height="4" fill="#482598" />
<rect x="62" y="62" width="4" height="11" fill="#04040A" />
<rect x="37" y="67" width="2" height="2" fill="#04040A" />
<rect x="39" y="68" width="5" height="4" fill="#04040A" />
<rect x="86" y="68" width="5" height="5" fill="#04040A" />
<rect x="44" y="71" width="1" height="8" fill="#04040A" />
<rect x="43" y="72" width="1" height="3" fill="#04040A" />
<rect x="82" y="72" width="4" height="4" fill="#04040A" />
<rect x="45" y="73" width="1" height="6" fill="#04040A" />
<rect x="46" y="74" width="4" height="5" fill="#04040A" />
<rect x="50" y="78" width="4" height="5" fill="#04040A" />
<rect x="49" y="79" width="1" height="4" fill="#04040A" />
<rect x="67" y="82" width="17" height="6" fill="#04040A" />
<rect x="29" y="83" width="5" height="4" fill="#04040A" />
<rect x="64" y="83" width="3" height="7" fill="#04040A" />
<rect x="84" y="83" width="1" height="10" fill="#04040A" />
<rect x="85" y="84" width="1" height="13" fill="#04040A" />
<rect x="61" y="85" width="3" height="5" fill="#04040A" />
<rect x="86" y="85" width="2" height="19" fill="#04040A" />
<rect x="57" y="86" width="4" height="5" fill="#04040A" />
<rect x="88" y="86" width="1" height="34" fill="#04040A" />
<rect x="34" y="87" width="6" height="4" fill="#04040A" />
<rect x="54" y="88" width="3" height="14" fill="#04040A" />
<rect x="67" y="88" width="3" height="2" fill="#04040A" />
<rect x="70" y="88" width="13" height="3" fill="#F5F5F3" />
<rect x="83" y="88" width="1" height="5" fill="#04040A" />
<rect x="89" y="88" width="1" height="30" fill="#04040A" />
<rect x="40" y="90" width="5" height="4" fill="#04040A" />
<rect x="61" y="90" width="2" height="7" fill="#04040A" />
<rect x="63" y="90" width="7" height="2" fill="#F5F5F3" />
<rect x="90" y="90" width="1" height="28" fill="#04040A" />
<rect x="39" y="91" width="1" height="3" fill="#04040A" />
<rect x="57" y="91" width="1" height="13" fill="#04040A" />
<rect x="58" y="91" width="3" height="5" fill="#F5F5F3" />
<rect x="70" y="91" width="2" height="3" fill="#F5F5F3" />
<rect x="72" y="91" width="3" height="4" fill="#04040A" />
<rect x="75" y="91" width="2" height="2" fill="#F5F5F3" />
<rect x="77" y="91" width="4" height="1" fill="#04040A" />
<rect x="81" y="91" width="2" height="5" fill="#F5F5F3" />
<rect x="52" y="92" width="2" height="10" fill="#04040A" />
<rect x="63" y="92" width="4" height="2" fill="#F5F5F3" />
<rect x="67" y="92" width="2" height="4" fill="#04040A" />
<rect x="69" y="92" width="1" height="2" fill="#F5F5F3" />
<rect x="77" y="92" width="1" height="5" fill="#F5F5F3" />
<rect x="78" y="92" width="3" height="2" fill="#04040A" />
<rect x="91" y="92" width="1" height="26" fill="#04040A" />
<rect x="51" y="93" width="1" height="21" fill="#04040A" />
<rect x="75" y="93" width="1" height="1" fill="#04040A" />
<rect x="76" y="93" width="1" height="4" fill="#F5F5F3" />
<rect x="83" y="93" width="2" height="3" fill="#F5F5F3" />
<rect x="63" y="94" width="4" height="1" fill="#04040A" />
<rect x="69" y="94" width="3" height="1" fill="#04040A" />
<rect x="75" y="94" width="1" height="3" fill="#F5F5F3" />
<rect x="78" y="94" width="1" height="3" fill="#F5F5F3" />
<rect x="79" y="94" width="2" height="5" fill="#04040A" />
<rect x="92" y="94" width="1" height="19" fill="#04040A" />
<rect x="63" y="95" width="1" height="2" fill="#04040A" />
<rect x="64" y="95" width="2" height="4" fill="#F5F5F3" />
<rect x="66" y="95" width="1" height="1" fill="#04040A" />
<rect x="69" y="95" width="6" height="2" fill="#F5F5F3" />
<rect x="58" y="96" width="3" height="9" fill="#04040A" />
<rect x="66" y="96" width="2" height="3" fill="#F5F5F3" />
<rect x="68" y="96" width="1" height="16" fill="#04040A" />
<rect x="81" y="96" width="4" height="1" fill="#04040A" />
<rect x="93" y="96" width="1" height="17" fill="#04040A" />
<rect x="61" y="97" width="1" height="9" fill="#04040A" />
<rect x="62" y="97" width="2" height="2" fill="#F5F5F3" />
<rect x="69" y="97" width="1" height="15" fill="#04040A" />
<rect x="70" y="97" width="2" height="1" fill="#F5F5F3" />
<rect x="72" y="97" width="7" height="2" fill="#04040A" />
<rect x="81" y="97" width="3" height="1" fill="#04040A" />
<rect x="84" y="97" width="2" height="5" fill="#F5F5F3" />
<rect x="50" y="98" width="1" height="21" fill="#04040A" />
<rect x="70" y="98" width="2" height="2" fill="#04040A" />
<rect x="81" y="98" width="2" height="1" fill="#04040A" />
<rect x="83" y="98" width="1" height="4" fill="#F5F5F3" />
<rect x="62" y="99" width="3" height="9" fill="#04040A" />
<rect x="65" y="99" width="2" height="1" fill="#F5F5F3" />
<rect x="67" y="99" width="1" height="11" fill="#04040A" />
<rect x="72" y="99" width="4" height="1" fill="#04040A" />
<rect x="76" y="99" width="4" height="3" fill="#F5F5F3" />
<rect x="80" y="99" width="1" height="1" fill="#04040A" />
<rect x="81" y="99" width="2" height="2" fill="#F5F5F3" />
<rect x="49" y="100" width="1" height="19" fill="#04040A" />
<rect x="65" y="100" width="2" height="10" fill="#04040A" />
<rect x="70" y="100" width="1" height="12" fill="#04040A" />
<rect x="71" y="100" width="3" height="4" fill="#F5F5F3" />
<rect x="74" y="100" width="2" height="1" fill="#04040A" />
<rect x="80" y="100" width="1" height="9" fill="#F5F5F3" />
<rect x="74" y="101" width="1" height="3" fill="#F5F5F3" />
<rect x="75" y="101" width="1" height="5" fill="#04040A" />
<rect x="81" y="101" width="1" height="1" fill="#F5F5F3" />
<rect x="82" y="101" width="1" height="9" fill="#04040A" />
<rect x="52" y="102" width="5" height="4" fill="#F5F5F3" />
<rect x="76" y="102" width="2" height="1" fill="#F5F5F3" />
<rect x="78" y="102" width="1" height="4" fill="#04040A" />
<rect x="79" y="102" width="1" height="7" fill="#F5F5F3" />
<rect x="81" y="102" width="1" height="3" fill="#04040A" />
<rect x="83" y="102" width="3" height="2" fill="#04040A" />
<rect x="76" y="103" width="2" height="3" fill="#04040A" />
<rect x="57" y="104" width="1" height="5" fill="#F5F5F3" />
<rect x="71" y="104" width="4" height="10" fill="#04040A" />
<rect x="83" y="104" width="1" height="6" fill="#04040A" />
<rect x="84" y="104" width="3" height="3" fill="#F5F5F3" />
<rect x="87" y="104" width="1" height="16" fill="#04040A" />
<rect x="58" y="105" width="2" height="5" fill="#F5F5F3" />
<rect x="60" y="105" width="1" height="1" fill="#04040A" />
<rect x="81" y="105" width="1" height="3" fill="#F5F5F3" />
<rect x="94" y="105" width="1" height="8" fill="#04040A" />
<rect x="52" y="106" width="3" height="8" fill="#04040A" />
<rect x="55" y="106" width="2" height="2" fill="#F5F5F3" />
<rect x="60" y="106" width="2" height="5" fill="#F5F5F3" />
<rect x="75" y="106" width="4" height="2" fill="#F5F5F3" />
<rect x="24" y="107" width="14" height="4" fill="#04040A" />
<rect x="84" y="107" width="3" height="3" fill="#04040A" />
<rect x="55" y="108" width="2" height="7" fill="#04040A" />
<rect x="62" y="108" width="3" height="5" fill="#F5F5F3" />
<rect x="75" y="108" width="3" height="9" fill="#04040A" />
<rect x="78" y="108" width="1" height="1" fill="#F5F5F3" />
<rect x="81" y="108" width="1" height="2" fill="#04040A" />
<rect x="57" y="109" width="1" height="8" fill="#04040A" />
<rect x="78" y="109" width="3" height="10" fill="#04040A" />
<rect x="58" y="110" width="2" height="8" fill="#04040A" />
<rect x="65" y="110" width="3" height="4" fill="#F5F5F3" />
<rect x="81" y="110" width="5" height="3" fill="#F5F5F3" />
<rect x="86" y="110" width="1" height="10" fill="#04040A" />
<rect x="60" y="111" width="2" height="8" fill="#04040A" />
<rect x="68" y="112" width="3" height="5" fill="#F5F5F3" />
<rect x="46" y="113" width="3" height="6" fill="#04040A" />
<rect x="62" y="113" width="2" height="7" fill="#04040A" />
<rect x="64" y="113" width="1" height="1" fill="#F5F5F3" />
<rect x="81" y="113" width="5" height="9" fill="#04040A" />
<rect x="51" y="114" width="3" height="3" fill="#F5F5F3" />
<rect x="54" y="114" width="1" height="1" fill="#04040A" />
<rect x="64" y="114" width="2" height="8" fill="#04040A" />
<rect x="66" y="114" width="2" height="2" fill="#F5F5F3" />
<rect x="71" y="114" width="2" height="5" fill="#F5F5F3" />
<rect x="73" y="114" width="2" height="1" fill="#04040A" />
<rect x="43" y="115" width="3" height="11" fill="#04040A" />
<rect x="54" y="115" width="2" height="4" fill="#F5F5F3" />
<rect x="56" y="115" width="1" height="1" fill="#04040A" />
<rect x="73" y="115" width="2" height="6" fill="#F5F5F3" />
<rect x="56" y="116" width="1" height="5" fill="#F5F5F3" />
<rect x="66" y="116" width="2" height="7" fill="#04040A" />
<rect x="51" y="117" width="1" height="5" fill="#04040A" />
<rect x="52" y="117" width="2" height="1" fill="#F5F5F3" />
<rect x="57" y="117" width="1" height="4" fill="#F5F5F3" />
<rect x="68" y="117" width="2" height="13" fill="#04040A" />
<rect x="70" y="117" width="1" height="2" fill="#F5F5F3" />
<rect x="75" y="117" width="2" height="6" fill="#F5F5F3" />
<rect x="77" y="117" width="1" height="2" fill="#04040A" />
<rect x="42" y="118" width="1" height="14" fill="#04040A" />
<rect x="52" y="118" width="2" height="4" fill="#04040A" />
<rect x="58" y="118" width="2" height="4" fill="#F5F5F3" />
<rect x="41" y="119" width="1" height="13" fill="#04040A" />
<rect x="46" y="119" width="2" height="7" fill="#04040A" />
<rect x="48" y="119" width="3" height="5" fill="#F5F5F3" />
<rect x="54" y="119" width="1" height="6" fill="#04040A" />
<rect x="55" y="119" width="1" height="1" fill="#F5F5F3" />
<rect x="60" y="119" width="1" height="4" fill="#F5F5F3" />
<rect x="61" y="119" width="1" height="1" fill="#04040A" />
<rect x="70" y="119" width="3" height="9" fill="#04040A" />
<rect x="77" y="119" width="3" height="4" fill="#F5F5F3" />
<rect x="80" y="119" width="1" height="5" fill="#04040A" />
<rect x="55" y="120" width="1" height="5" fill="#04040A" />
<rect x="61" y="120" width="2" height="4" fill="#F5F5F3" />
<rect x="63" y="120" width="1" height="1" fill="#04040A" />
<rect x="56" y="121" width="2" height="4" fill="#04040A" />
<rect x="63" y="121" width="1" height="5" fill="#F5F5F3" />
<rect x="73" y="121" width="2" height="7" fill="#04040A" />
<rect x="51" y="122" width="3" height="3" fill="#F5F5F3" />
<rect x="58" y="122" width="1" height="116" fill="#04040A" />
<rect x="59" y="122" width="1" height="1" fill="#F5F5F3" />
<rect x="64" y="122" width="1" height="4" fill="#F5F5F3" />
<rect x="65" y="122" width="1" height="1" fill="#04040A" />
<rect x="81" y="122" width="3" height="1" fill="#04040A" />
<rect x="40" y="123" width="1" height="9" fill="#04040A" />
<rect x="59" y="123" width="2" height="21" fill="#04040A" />
<rect x="65" y="123" width="2" height="4" fill="#F5F5F3" />
<rect x="67" y="123" width="1" height="1" fill="#04040A" />
<rect x="75" y="123" width="5" height="3" fill="#04040A" />
<rect x="81" y="123" width="2" height="1" fill="#04040A" />
<rect x="38" y="124" width="2" height="15" fill="#04040A" />
<rect x="48" y="124" width="3" height="5" fill="#04040A" />
<rect x="61" y="124" width="1" height="14" fill="#04040A" />
<rect x="62" y="124" width="1" height="1" fill="#F5F5F3" />
<rect x="67" y="124" width="1" height="3" fill="#F5F5F3" />
<rect x="51" y="125" width="2" height="6" fill="#04040A" />
<rect x="53" y="125" width="4" height="2" fill="#F5F5F3" />
<rect x="57" y="125" width="1" height="113" fill="#04040A" />
<rect x="62" y="125" width="1" height="13" fill="#04040A" />
<rect x="43" y="126" width="1" height="9" fill="#04040A" />
<rect x="44" y="126" width="3" height="5" fill="#F5F5F3" />
<rect x="47" y="126" width="1" height="3" fill="#04040A" />
<rect x="63" y="126" width="2" height="12" fill="#04040A" />
<rect x="75" y="126" width="4" height="1" fill="#04040A" />
<rect x="53" y="127" width="4" height="23" fill="#04040A" />
<rect x="65" y="127" width="3" height="3" fill="#04040A" />
<rect x="75" y="127" width="1" height="1" fill="#04040A" />
<rect x="35" y="128" width="3" height="11" fill="#04040A" />
<rect x="47" y="129" width="3" height="2" fill="#F5F5F3" />
<rect x="50" y="129" width="1" height="2" fill="#04040A" />
<rect x="34" y="130" width="1" height="14" fill="#04040A" />
<rect x="65" y="130" width="2" height="3" fill="#04040A" />
<rect x="44" y="131" width="4" height="4" fill="#04040A" />
<rect x="48" y="131" width="5" height="1" fill="#F5F5F3" />
<rect x="32" y="132" width="2" height="12" fill="#04040A" />
<rect x="40" y="132" width="3" height="4" fill="#F5F5F3" />
<rect x="48" y="132" width="1" height="6" fill="#04040A" />
<rect x="49" y="132" width="4" height="1" fill="#F5F5F3" />
<rect x="49" y="133" width="1" height="22" fill="#04040A" />
<rect x="50" y="133" width="3" height="1" fill="#F5F5F3" />
<rect x="50" y="134" width="3" height="16" fill="#04040A" />
<rect x="43" y="135" width="3" height="2" fill="#F5F5F3" />
<rect x="46" y="135" width="2" height="2" fill="#04040A" />
<rect x="40" y="136" width="3" height="6" fill="#04040A" />
<rect x="31" y="137" width="1" height="15" fill="#04040A" />
<rect x="43" y="137" width="1" height="7" fill="#04040A" />
<rect x="44" y="137" width="4" height="1" fill="#F5F5F3" />
<rect x="29" y="138" width="2" height="11" fill="#04040A" />
<rect x="44" y="138" width="2" height="6" fill="#04040A" />
<rect x="46" y="138" width="3" height="2" fill="#F5F5F3" />
<rect x="35" y="139" width="1" height="7" fill="#04040A" />
<rect x="36" y="139" width="3" height="4" fill="#F5F5F3" />
<rect x="39" y="139" width="1" height="3" fill="#04040A" />
<rect x="46" y="140" width="3" height="20" fill="#04040A" />
<rect x="26" y="142" width="3" height="7" fill="#04040A" />
<rect x="39" y="142" width="4" height="2" fill="#F5F5F3" />
<rect x="36" y="143" width="3" height="5" fill="#04040A" />
<rect x="32" y="144" width="3" height="5" fill="#F5F5F3" />
<rect x="39" y="144" width="1" height="6" fill="#04040A" />
<rect x="40" y="144" width="5" height="1" fill="#F5F5F3" />
<rect x="45" y="144" width="1" height="16" fill="#04040A" />
<rect x="59" y="144" width="1" height="94" fill="#04040A" />
<rect x="40" y="145" width="2" height="19" fill="#04040A" />
<rect x="42" y="145" width="3" height="1" fill="#F5F5F3" />
<rect x="24" y="146" width="2" height="9" fill="#04040A" />
<rect x="35" y="146" width="1" height="4" fill="#F5F5F3" />
<rect x="42" y="146" width="3" height="18" fill="#04040A" />
<rect x="23" y="147" width="1" height="8" fill="#04040A" />
<rect x="36" y="148" width="1" height="3" fill="#F5F5F3" />
<rect x="37" y="148" width="2" height="1" fill="#04040A" />
<rect x="26" y="149" width="2" height="9" fill="#04040A" />
<rect x="28" y="149" width="3" height="5" fill="#F5F5F3" />
<rect x="32" y="149" width="3" height="3" fill="#04040A" />
<rect x="37" y="149" width="1" height="3" fill="#F5F5F3" />
<rect x="38" y="149" width="1" height="1" fill="#04040A" />
<rect x="22" y="150" width="1" height="7" fill="#04040A" />
<rect x="35" y="150" width="1" height="21" fill="#04040A" />
<rect x="38" y="150" width="2" height="2" fill="#F5F5F3" />
<rect x="50" y="150" width="2" height="5" fill="#04040A" />
<rect x="55" y="150" width="2" height="88" fill="#04040A" />
<rect x="20" y="151" width="2" height="17" fill="#04040A" />
<rect x="36" y="151" width="1" height="20" fill="#04040A" />
<rect x="31" y="152" width="3" height="3" fill="#F5F5F3" />
<rect x="34" y="152" width="1" height="12" fill="#04040A" />
<rect x="37" y="152" width="3" height="19" fill="#04040A" />
<rect x="28" y="154" width="3" height="6" fill="#04040A" />
<rect x="16" y="155" width="4" height="11" fill="#04040A" />
<rect x="23" y="155" width="3" height="6" fill="#F5F5F3" />
<rect x="31" y="155" width="3" height="7" fill="#04040A" />
<rect x="22" y="157" width="1" height="3" fill="#F5F5F3" />
<rect x="26" y="158" width="1" height="5" fill="#F5F5F3" />
<rect x="27" y="158" width="1" height="1" fill="#04040A" />
<rect x="78" y="158" width="7" height="11" fill="#482598" />
<rect x="27" y="159" width="1" height="5" fill="#F5F5F3" />
<rect x="22" y="160" width="1" height="17" fill="#04040A" />
<rect x="28" y="160" width="1" height="4" fill="#F5F5F3" />
<rect x="29" y="160" width="2" height="1" fill="#04040A" />
<rect x="23" y="161" width="2" height="12" fill="#04040A" />
<rect x="25" y="161" width="1" height="1" fill="#F5F5F3" />
<rect x="29" y="161" width="2" height="4" fill="#F5F5F3" />
<rect x="25" y="162" width="1" height="11" fill="#04040A" />
<rect x="31" y="162" width="1" height="4" fill="#F5F5F3" />
<rect x="32" y="162" width="2" height="1" fill="#04040A" />
<rect x="26" y="163" width="1" height="10" fill="#04040A" />
<rect x="32" y="163" width="2" height="4" fill="#F5F5F3" />
<rect x="27" y="164" width="2" height="9" fill="#04040A" />
<rect x="34" y="164" width="1" height="3" fill="#F5F5F3" />
<rect x="40" y="164" width="1" height="1" fill="#04040A" />
<rect x="75" y="164" width="3" height="14" fill="#482598" />
<rect x="85" y="164" width="3" height="13" fill="#482598" />
<rect x="29" y="165" width="1" height="10" fill="#04040A" />
<rect x="30" y="165" width="1" height="1" fill="#F5F5F3" />
<rect x="19" y="166" width="1" height="1" fill="#04040A" />
<rect x="30" y="166" width="2" height="9" fill="#04040A" />
<rect x="32" y="167" width="3" height="4" fill="#04040A" />
<rect x="67" y="168" width="8" height="6" fill="#482598" />
<rect x="88" y="168" width="6" height="6" fill="#482598" />
<rect x="21" y="169" width="1" height="8" fill="#04040A" />
<rect x="78" y="169" width="1" height="15" fill="#482598" />
<rect x="79" y="169" width="4" height="5" fill="#F5F5F3" />
<rect x="83" y="169" width="2" height="8" fill="#482598" />
<rect x="17" y="171" width="4" height="6" fill="#04040A" />
<rect x="32" y="171" width="2" height="4" fill="#04040A" />
<rect x="28" y="173" width="1" height="1" fill="#04040A" />
<rect x="79" y="174" width="4" height="10" fill="#482598" />
<rect x="13" y="175" width="4" height="15" fill="#04040A" />
<rect x="17" y="177" width="1" height="18" fill="#04040A" />
<rect x="83" y="177" width="1" height="7" fill="#482598" />
<rect x="47" y="184" width="8" height="3" fill="#04040A" />
<rect x="60" y="186" width="5" height="6" fill="#04040A" />
<rect x="40" y="187" width="9" height="4" fill="#04040A" />
<rect x="53" y="187" width="2" height="1" fill="#04040A" />
<rect x="18" y="188" width="5" height="7" fill="#04040A" />
<rect x="33" y="191" width="9" height="4" fill="#04040A" />
<rect x="65" y="191" width="6" height="5" fill="#04040A" />
<rect x="23" y="194" width="10" height="5" fill="#04040A" />
<rect x="71" y="194" width="4" height="19" fill="#04040A" />
<rect x="22" y="195" width="1" height="4" fill="#04040A" />
<rect x="33" y="195" width="3" height="1" fill="#04040A" />
<rect x="33" y="196" width="1" height="3" fill="#04040A" />
<rect x="69" y="196" width="2" height="4" fill="#04040A" />
<rect x="75" y="204" width="1" height="9" fill="#04040A" />
<rect x="40" y="208" width="6" height="5" fill="#04040A" />
<rect x="46" y="211" width="5" height="6" fill="#04040A" />
<rect x="66" y="212" width="5" height="5" fill="#04040A" />
<rect x="33" y="213" width="4" height="4" fill="#04040A" />
<rect x="45" y="213" width="1" height="4" fill="#04040A" />
<rect x="71" y="213" width="1" height="4" fill="#04040A" />
<rect x="51" y="216" width="4" height="5" fill="#04040A" />
<rect x="60" y="216" width="6" height="5" fill="#04040A" />
<rect x="50" y="217" width="1" height="4" fill="#04040A" />
<rect x="66" y="217" width="1" height="4" fill="#04040A" />
<rect x="11" y="219" width="20" height="4" fill="#04040A" />
<rect x="19" y="225" width="20" height="3" fill="#04040A" />
<rect x="46" y="230" width="9" height="8" fill="#04040A" />
<rect x="60" y="230" width="8" height="8" fill="#04040A" />
<rect x="85" y="230" width="7" height="3" fill="#04040A" />
<rect x="32" y="235" width="14" height="3" fill="#04040A" />
<rect x="68" y="235" width="15" height="3" fill="#04040A" />
<rect x="32" y="238" width="4" height="14" fill="#04040A" />
<rect x="36" y="238" width="42" height="3" fill="#F5F5F3" />
<rect x="78" y="238" width="5" height="14" fill="#04040A" />
<rect x="36" y="241" width="42" height="11" fill="#04040A" />
<rect x="86" y="243" width="12" height="6" fill="#04040A" />
<rect x="15" y="244" width="13" height="5" fill="#04040A" />
<rect x="19" y="254" width="81" height="3" fill="#04040A" />
</svg>