<?xml version="1.0" encoding="UTF-8" ?>
<svg version="1.1" width="400" height="400" xmlns="http://www.w3.org/2000/svg" shape-rendering="crispEdges">
<rect x="31" y="38" width="338" height="10" fill="#02020C" />
<rect x="24" y="45" width="7" height="17" fill="#02020C" />
<rect x="369" y="47" width="6" height="12" fill="#02020C" />
<rect x="31" y="48" width="4" height="12" fill="#02020C" />
<rect x="363" y="48" width="6" height="11" fill="#02020C" />
<rect x="14" y="54" width="10" height="298" fill="#02020C" />
<rect x="375" y="54" width="13" height="298" fill="#02020C" />
<rect x="35" y="59" width="328" height="20" fill="#482598" />
<rect x="31" y="60" width="3" height="2" fill="#02020C" />
<rect x="35" y="79" width="72" height="6" fill="#482598" />
<rect x="107" y="79" width="51" height="8" fill="#02020C" />
<rect x="158" y="79" width="205" height="5" fill="#482598" />
<rect x="158" y="84" width="7" height="8" fill="#02020C" />
<rect x="165" y="84" width="198" height="2" fill="#482598" />
<rect x="35" y="85" width="64" height="4" fill="#482598" />
<rect x="99" y="85" width="8" height="8" fill="#02020C" />
<rect x="165" y="86" width="74" height="1" fill="#482598" />
<rect x="239" y="86" width="48" height="8" fill="#02020C" />
<rect x="287" y="86" width="76" height="5" fill="#482598" />
<rect x="107" y="87" width="50" height="6" fill="#482598" />
<rect x="157" y="87" width="1" height="5" fill="#02020C" />
<rect x="165" y="87" width="7" height="8" fill="#02020C" />
<rect x="172" y="87" width="67" height="4" fill="#482598" />
<rect x="35" y="89" width="57" height="6" fill="#482598" />
<rect x="92" y="89" width="7" height="9" fill="#02020C" />
<rect x="172" y="91" width="60" height="1" fill="#482598" />
<rect x="232" y="91" width="7" height="8" fill="#02020C" />
<rect x="287" y="91" width="8" height="8" fill="#02020C" />
<rect x="295" y="91" width="68" height="5" fill="#482598" />
<rect x="157" y="92" width="6" height="6" fill="#FBF8FB" />
<rect x="163" y="92" width="1" height="15" fill="#482598" />
<rect x="164" y="92" width="1" height="3" fill="#02020C" />
<rect x="172" y="92" width="6" height="8" fill="#02020C" />
<rect x="178" y="92" width="54" height="3" fill="#482598" />
<rect x="99" y="93" width="1" height="5" fill="#02020C" />
<rect x="100" y="93" width="4" height="14" fill="#482598" />
<rect x="104" y="93" width="6" height="6" fill="#FBF8FB" />
<rect x="110" y="93" width="47" height="5" fill="#482598" />
<rect x="239" y="94" width="1" height="5" fill="#02020C" />
<rect x="240" y="94" width="47" height="12" fill="#482598" />
<rect x="35" y="95" width="51" height="9" fill="#482598" />
<rect x="86" y="95" width="6" height="11" fill="#02020C" />
<rect x="164" y="95" width="6" height="12" fill="#482598" />
<rect x="170" y="95" width="2" height="5" fill="#02020C" />
<rect x="178" y="95" width="47" height="2" fill="#482598" />
<rect x="225" y="95" width="7" height="11" fill="#02020C" />
<rect x="295" y="96" width="8" height="10" fill="#02020C" />
<rect x="303" y="96" width="60" height="9" fill="#482598" />
<rect x="178" y="97" width="4" height="10" fill="#02020C" />
<rect x="182" y="97" width="43" height="2" fill="#482598" />
<rect x="92" y="98" width="2" height="8" fill="#02020C" />
<rect x="94" y="98" width="6" height="8" fill="#482598" />
<rect x="110" y="98" width="48" height="9" fill="#02020C" />
<rect x="158" y="98" width="5" height="9" fill="#482598" />
<rect x="104" y="99" width="5" height="8" fill="#482598" />
<rect x="109" y="99" width="1" height="8" fill="#02020C" />
<rect x="182" y="99" width="38" height="6" fill="#482598" />
<rect x="220" y="99" width="5" height="14" fill="#02020C" />
<rect x="232" y="99" width="1" height="7" fill="#02020C" />
<rect x="233" y="99" width="6" height="6" fill="#FBF8FB" />
<rect x="239" y="99" width="1" height="12" fill="#482598" />
<rect x="287" y="99" width="2" height="7" fill="#482598" />
<rect x="289" y="99" width="6" height="6" fill="#FBF8FB" />
<rect x="170" y="100" width="4" height="7" fill="#482598" />
<rect x="174" y="100" width="4" height="7" fill="#02020C" />
<rect x="35" y="104" width="43" height="19" fill="#482598" />
<rect x="78" y="104" width="8" height="29" fill="#02020C" />
<rect x="182" y="105" width="7" height="28" fill="#02020C" />
<rect x="189" y="105" width="26" height="9" fill="#482598" />
<rect x="215" y="105" width="5" height="10" fill="#02020C" />
<rect x="233" y="105" width="6" height="6" fill="#482598" />
<rect x="289" y="105" width="6" height="6" fill="#482598" />
<rect x="303" y="105" width="1" height="11" fill="#482598" />
<rect x="304" y="105" width="8" height="11" fill="#02020C" />
<rect x="312" y="105" width="51" height="10" fill="#482598" />
<rect x="86" y="106" width="5" height="17" fill="#482598" />
<rect x="91" y="106" width="6" height="9" fill="#FBF8FB" />
<rect x="97" y="106" width="3" height="1" fill="#482598" />
<rect x="225" y="106" width="8" height="5" fill="#482598" />
<rect x="240" y="106" width="48" height="8" fill="#02020C" />
<rect x="288" y="106" width="1" height="5" fill="#482598" />
<rect x="295" y="106" width="8" height="9" fill="#482598" />
<rect x="97" y="107" width="1" height="16" fill="#482598" />
<rect x="98" y="107" width="11" height="8" fill="#02020C" />
<rect x="109" y="107" width="49" height="18" fill="#482598" />
<rect x="158" y="107" width="10" height="9" fill="#02020C" />
<rect x="168" y="107" width="4" height="16" fill="#482598" />
<rect x="172" y="107" width="6" height="9" fill="#FBF8FB" />
<rect x="178" y="107" width="3" height="16" fill="#482598" />
<rect x="181" y="107" width="1" height="26" fill="#02020C" />
<rect x="225" y="111" width="7" height="4" fill="#482598" />
<rect x="232" y="111" width="8" height="18" fill="#02020C" />
<rect x="288" y="111" width="7" height="14" fill="#02020C" />
<rect x="220" y="113" width="3" height="2" fill="#02020C" />
<rect x="223" y="113" width="2" height="2" fill="#482598" />
<rect x="189" y="114" width="19" height="9" fill="#482598" />
<rect x="208" y="114" width="7" height="27" fill="#02020C" />
<rect x="240" y="114" width="47" height="20" fill="#482598" />
<rect x="287" y="114" width="1" height="11" fill="#02020C" />
<rect x="91" y="115" width="6" height="8" fill="#482598" />
<rect x="98" y="115" width="8" height="8" fill="#02020C" />
<rect x="106" y="115" width="3" height="10" fill="#482598" />
<rect x="215" y="115" width="1" height="26" fill="#02020C" />
<rect x="216" y="115" width="4" height="14" fill="#482598" />
<rect x="220" y="115" width="6" height="6" fill="#FBF8FB" />
<rect x="226" y="115" width="3" height="14" fill="#482598" />
<rect x="229" y="115" width="3" height="110" fill="#02020C" />
<rect x="295" y="115" width="5" height="110" fill="#02020C" />
<rect x="300" y="115" width="3" height="1" fill="#482598" />
<rect x="312" y="115" width="6" height="25" fill="#02020C" />
<rect x="318" y="115" width="45" height="17" fill="#482598" />
<rect x="158" y="116" width="2" height="16" fill="#482598" />
<rect x="160" y="116" width="8" height="7" fill="#02020C" />
<rect x="172" y="116" width="6" height="7" fill="#482598" />
<rect x="300" y="116" width="6" height="6" fill="#FBF8FB" />
<rect x="306" y="116" width="4" height="16" fill="#482598" />
<rect x="310" y="116" width="2" height="24" fill="#02020C" />
<rect x="220" y="121" width="6" height="8" fill="#482598" />
<rect x="300" y="122" width="6" height="10" fill="#482598" />
<rect x="35" y="123" width="39" height="9" fill="#482598" />
<rect x="74" y="123" width="4" height="10" fill="#02020C" />
<rect x="86" y="123" width="16" height="10" fill="#02020C" />
<rect x="102" y="123" width="4" height="9" fill="#482598" />
<rect x="160" y="123" width="5" height="9" fill="#482598" />
<rect x="165" y="123" width="16" height="10" fill="#02020C" />
<rect x="189" y="123" width="5" height="10" fill="#02020C" />
<rect x="194" y="123" width="14" height="7" fill="#482598" />
<rect x="106" y="125" width="1" height="7" fill="#482598" />
<rect x="107" y="125" width="51" height="26" fill="#02020C" />
<rect x="287" y="125" width="7" height="9" fill="#482598" />
<rect x="294" y="125" width="1" height="100" fill="#02020C" />
<rect x="216" y="129" width="13" height="12" fill="#02020C" />
<rect x="232" y="129" width="1" height="96" fill="#02020C" />
<rect x="233" y="129" width="7" height="5" fill="#482598" />
<rect x="194" y="130" width="9" height="3" fill="#482598" />
<rect x="203" y="130" width="5" height="11" fill="#02020C" />
<rect x="35" y="132" width="34" height="7" fill="#482598" />
<rect x="69" y="132" width="5" height="48" fill="#02020C" />
<rect x="102" y="132" width="5" height="88" fill="#02020C" />
<rect x="158" y="132" width="7" height="88" fill="#02020C" />
<rect x="300" y="132" width="10" height="8" fill="#02020C" />
<rect x="318" y="132" width="6" height="8" fill="#02020C" />
<rect x="324" y="132" width="39" height="8" fill="#482598" />
<rect x="74" y="133" width="2" height="7" fill="#02020C" />
<rect x="76" y="133" width="15" height="6" fill="#FBF8FB" />
<rect x="91" y="133" width="11" height="50" fill="#02020C" />
<rect x="165" y="133" width="11" height="49" fill="#02020C" />
<rect x="176" y="133" width="11" height="11" fill="#FBF8FB" />
<rect x="187" y="133" width="5" height="42" fill="#482598" />
<rect x="192" y="133" width="8" height="42" fill="#02020C" />
<rect x="200" y="133" width="3" height="7" fill="#482598" />
<rect x="233" y="134" width="5" height="6" fill="#482598" />
<rect x="238" y="134" width="52" height="25" fill="#02020C" />
<rect x="290" y="134" width="4" height="6" fill="#482598" />
<rect x="35" y="139" width="30" height="101" fill="#482598" />
<rect x="65" y="139" width="4" height="33" fill="#02020C" />
<rect x="76" y="139" width="1" height="1" fill="#02020C" />
<rect x="77" y="139" width="1" height="36" fill="#482598" />
<rect x="78" y="139" width="13" height="5" fill="#FBF8FB" />
<rect x="74" y="140" width="3" height="32" fill="#482598" />
<rect x="200" y="140" width="3" height="43" fill="#02020C" />
<rect x="233" y="140" width="5" height="85" fill="#02020C" />
<rect x="290" y="140" width="4" height="85" fill="#02020C" />
<rect x="300" y="140" width="5" height="51" fill="#02020C" />
<rect x="305" y="140" width="12" height="15" fill="#FBF8FB" />
<rect x="317" y="140" width="4" height="42" fill="#482598" />
<rect x="321" y="140" width="8" height="43" fill="#02020C" />
<rect x="329" y="140" width="34" height="6" fill="#482598" />
<rect x="203" y="141" width="1" height="42" fill="#02020C" />
<rect x="204" y="141" width="6" height="32" fill="#482598" />
<rect x="210" y="141" width="11" height="12" fill="#FBF8FB" />
<rect x="221" y="141" width="8" height="50" fill="#02020C" />
<rect x="78" y="144" width="7" height="31" fill="#482598" />
<rect x="85" y="144" width="6" height="23" fill="#FBF8FB" />
<rect x="176" y="144" width="6" height="25" fill="#FBF8FB" />
<rect x="182" y="144" width="5" height="31" fill="#482598" />
<rect x="329" y="146" width="3" height="37" fill="#02020C" />
<rect x="332" y="146" width="31" height="94" fill="#482598" />
<rect x="107" y="151" width="3" height="69" fill="#02020C" />
<rect x="110" y="151" width="11" height="11" fill="#FBF8FB" />
<rect x="121" y="151" width="37" height="1" fill="#02020C" />
<rect x="121" y="152" width="23" height="68" fill="#02020C" />
<rect x="144" y="152" width="11" height="10" fill="#FBF8FB" />
<rect x="155" y="152" width="3" height="68" fill="#02020C" />
<rect x="210" y="153" width="5" height="30" fill="#482598" />
<rect x="215" y="153" width="6" height="20" fill="#FBF8FB" />
<rect x="305" y="155" width="6" height="27" fill="#FBF8FB" />
<rect x="311" y="155" width="6" height="27" fill="#482598" />
<rect x="238" y="159" width="4" height="66" fill="#02020C" />
<rect x="242" y="159" width="10" height="12" fill="#FBF8FB" />
<rect x="252" y="159" width="25" height="66" fill="#02020C" />
<rect x="277" y="159" width="10" height="12" fill="#FBF8FB" />
<rect x="287" y="159" width="3" height="66" fill="#02020C" />
<rect x="110" y="162" width="11" height="58" fill="#02020C" />
<rect x="144" y="162" width="11" height="58" fill="#02020C" />
<rect x="85" y="167" width="6" height="8" fill="#482598" />
<rect x="176" y="169" width="6" height="6" fill="#482598" />
<rect x="242" y="171" width="10" height="54" fill="#02020C" />
<rect x="277" y="171" width="10" height="54" fill="#02020C" />
<rect x="65" y="172" width="4" height="68" fill="#482598" />
<rect x="74" y="172" width="3" height="8" fill="#02020C" />
<rect x="204" y="173" width="2" height="10" fill="#02020C" />
<rect x="206" y="173" width="4" height="10" fill="#482598" />
<rect x="215" y="173" width="6" height="10" fill="#482598" />
<rect x="77" y="175" width="14" height="8" fill="#02020C" />
<rect x="176" y="175" width="18" height="7" fill="#02020C" />
<rect x="194" y="175" width="5" height="36" fill="#482598" />
<rect x="199" y="175" width="1" height="8" fill="#02020C" />
<rect x="69" y="180" width="6" height="31" fill="#482598" />
<rect x="75" y="180" width="2" height="6" fill="#02020C" />
<rect x="165" y="182" width="5" height="38" fill="#02020C" />
<rect x="170" y="182" width="6" height="8" fill="#482598" />
<rect x="176" y="182" width="15" height="5" fill="#02020C" />
<rect x="191" y="182" width="3" height="29" fill="#482598" />
<rect x="305" y="182" width="16" height="8" fill="#02020C" />
<rect x="77" y="183" width="13" height="3" fill="#02020C" />
<rect x="90" y="183" width="5" height="7" fill="#482598" />
<rect x="95" y="183" width="7" height="37" fill="#02020C" />
<rect x="199" y="183" width="6" height="34" fill="#482598" />
<rect x="205" y="183" width="16" height="11" fill="#02020C" />
<rect x="321" y="183" width="1" height="7" fill="#02020C" />
<rect x="322" y="183" width="10" height="34" fill="#482598" />
<rect x="75" y="186" width="15" height="4" fill="#482598" />
<rect x="176" y="187" width="15" height="3" fill="#482598" />
<rect x="75" y="190" width="14" height="7" fill="#482598" />
<rect x="89" y="190" width="6" height="30" fill="#02020C" />
<rect x="170" y="190" width="7" height="30" fill="#02020C" />
<rect x="177" y="190" width="14" height="7" fill="#482598" />
<rect x="305" y="190" width="14" height="3" fill="#02020C" />
<rect x="319" y="190" width="3" height="21" fill="#482598" />
<rect x="221" y="191" width="4" height="4" fill="#482598" />
<rect x="225" y="191" width="4" height="34" fill="#02020C" />
<rect x="300" y="191" width="2" height="5" fill="#482598" />
<rect x="302" y="191" width="3" height="2" fill="#02020C" />
<rect x="302" y="193" width="17" height="3" fill="#482598" />
<rect x="205" y="194" width="16" height="1" fill="#482598" />
<rect x="205" y="195" width="15" height="5" fill="#482598" />
<rect x="220" y="195" width="5" height="30" fill="#02020C" />
<rect x="300" y="196" width="5" height="29" fill="#02020C" />
<rect x="305" y="196" width="14" height="5" fill="#482598" />
<rect x="75" y="197" width="7" height="7" fill="#482598" />
<rect x="82" y="197" width="7" height="23" fill="#02020C" />
<rect x="177" y="197" width="8" height="23" fill="#02020C" />
<rect x="185" y="197" width="6" height="7" fill="#482598" />
<rect x="205" y="200" width="9" height="6" fill="#482598" />
<rect x="214" y="200" width="6" height="25" fill="#02020C" />
<rect x="305" y="201" width="5" height="24" fill="#02020C" />
<rect x="310" y="201" width="9" height="5" fill="#482598" />
<rect x="75" y="204" width="1" height="7" fill="#482598" />
<rect x="76" y="204" width="6" height="16" fill="#02020C" />
<rect x="185" y="204" width="6" height="16" fill="#02020C" />
<rect x="205" y="206" width="5" height="5" fill="#482598" />
<rect x="210" y="206" width="4" height="19" fill="#02020C" />
<rect x="310" y="206" width="5" height="19" fill="#02020C" />
<rect x="315" y="206" width="4" height="5" fill="#482598" />
<rect x="69" y="211" width="7" height="9" fill="#02020C" />
<rect x="191" y="211" width="6" height="9" fill="#02020C" />
<rect x="197" y="211" width="2" height="29" fill="#482598" />
<rect x="205" y="211" width="5" height="14" fill="#02020C" />
<rect x="315" y="211" width="6" height="14" fill="#02020C" />
<rect x="321" y="211" width="1" height="6" fill="#482598" />
<rect x="199" y="217" width="6" height="8" fill="#02020C" />
<rect x="321" y="217" width="5" height="8" fill="#02020C" />
<rect x="326" y="217" width="6" height="23" fill="#482598" />
<rect x="69" y="220" width="128" height="20" fill="#482598" />
<rect x="199" y="225" width="127" height="15" fill="#482598" />
<rect x="35" y="240" width="16" height="13" fill="#482598" />
<rect x="51" y="240" width="296" height="6" fill="#FBF8FB" />
<rect x="347" y="240" width="16" height="13" fill="#482598" />
<rect x="51" y="246" width="296" height="7" fill="#482598" />
<rect x="43" y="253" width="307" height="23" fill="#02020C" />
<rect x="350" y="262" width="13" height="68" fill="#02020C" />
<rect x="33" y="263" width="10" height="67" fill="#02020C" />
<rect x="43" y="276" width="22" height="62" fill="#02020C" />
<rect x="65" y="276" width="8" height="32" fill="#FBF8FB" />
<rect x="73" y="276" width="70" height="1" fill="#02020C" />
<rect x="143" y="276" width="22" height="8" fill="#FBF8FB" />
<rect x="165" y="276" width="5" height="62" fill="#02020C" />
<rect x="170" y="276" width="8" height="32" fill="#FBF8FB" />
<rect x="178" y="276" width="6" height="62" fill="#02020C" />
<rect x="184" y="276" width="20" height="8" fill="#FBF8FB" />
<rect x="204" y="276" width="8" height="6" fill="#02020C" />
<rect x="212" y="276" width="8" height="32" fill="#FBF8FB" />
<rect x="220" y="276" width="18" height="6" fill="#02020C" />
<rect x="238" y="276" width="19" height="8" fill="#FBF8FB" />
<rect x="257" y="276" width="93" height="1" fill="#02020C" />
<rect x="73" y="277" width="12" height="5" fill="#02020C" />
<rect x="85" y="277" width="8" height="31" fill="#FBF8FB" />
<rect x="93" y="277" width="4" height="61" fill="#02020C" />
<rect x="97" y="277" width="8" height="31" fill="#FBF8FB" />
<rect x="105" y="277" width="8" height="23" fill="#02020C" />
<rect x="113" y="277" width="8" height="31" fill="#FBF8FB" />
<rect x="121" y="277" width="4" height="61" fill="#02020C" />
<rect x="125" y="277" width="8" height="31" fill="#FBF8FB" />
<rect x="133" y="277" width="10" height="23" fill="#02020C" />
<rect x="257" y="277" width="7" height="5" fill="#02020C" />
<rect x="264" y="277" width="8" height="14" fill="#FBF8FB" />
<rect x="272" y="277" width="8" height="14" fill="#02020C" />
<rect x="280" y="277" width="8" height="14" fill="#FBF8FB" />
<rect x="288" y="277" width="5" height="61" fill="#02020C" />
<rect x="293" y="277" width="20" height="6" fill="#FBF8FB" />
<rect x="313" y="277" width="3" height="61" fill="#02020C" />
<rect x="316" y="277" width="19" height="6" fill="#FBF8FB" />
<rect x="335" y="277" width="15" height="5" fill="#02020C" />
<rect x="73" y="282" width="4" height="8" fill="#FBF8FB" />
<rect x="77" y="282" width="5" height="5" fill="#02020C" />
<rect x="82" y="282" width="3" height="8" fill="#FBF8FB" />
<rect x="204" y="282" width="4" height="9" fill="#FBF8FB" />
<rect x="208" y="282" width="4" height="56" fill="#02020C" />
<rect x="220" y="282" width="15" height="18" fill="#02020C" />
<rect x="235" y="282" width="3" height="26" fill="#FBF8FB" />
<rect x="257" y="282" width="4" height="26" fill="#FBF8FB" />
<rect x="261" y="282" width="3" height="56" fill="#02020C" />
<rect x="335" y="282" width="5" height="9" fill="#FBF8FB" />
<rect x="340" y="282" width="10" height="56" fill="#02020C" />
<rect x="293" y="283" width="8" height="25" fill="#FBF8FB" />
<rect x="301" y="283" width="12" height="7" fill="#02020C" />
<rect x="316" y="283" width="8" height="25" fill="#FBF8FB" />
<rect x="324" y="283" width="8" height="7" fill="#02020C" />
<rect x="332" y="283" width="3" height="25" fill="#FBF8FB" />
<rect x="143" y="284" width="7" height="16" fill="#02020C" />
<rect x="150" y="284" width="8" height="24" fill="#FBF8FB" />
<rect x="158" y="284" width="7" height="54" fill="#02020C" />
<rect x="184" y="284" width="8" height="25" fill="#FBF8FB" />
<rect x="192" y="284" width="8" height="6" fill="#02020C" />
<rect x="200" y="284" width="4" height="14" fill="#FBF8FB" />
<rect x="238" y="284" width="5" height="24" fill="#FBF8FB" />
<rect x="243" y="284" width="10" height="6" fill="#02020C" />
<rect x="253" y="284" width="4" height="24" fill="#FBF8FB" />
<rect x="77" y="287" width="5" height="9" fill="#FBF8FB" />
<rect x="73" y="290" width="2" height="48" fill="#02020C" />
<rect x="75" y="290" width="2" height="6" fill="#FBF8FB" />
<rect x="82" y="290" width="1" height="6" fill="#FBF8FB" />
<rect x="83" y="290" width="2" height="48" fill="#02020C" />
<rect x="192" y="290" width="8" height="8" fill="#FBF8FB" />
<rect x="243" y="290" width="10" height="8" fill="#FBF8FB" />
<rect x="301" y="290" width="9" height="6" fill="#FBF8FB" />
<rect x="310" y="290" width="3" height="12" fill="#02020C" />
<rect x="324" y="290" width="8" height="6" fill="#FBF8FB" />
<rect x="204" y="291" width="4" height="47" fill="#02020C" />
<rect x="264" y="291" width="4" height="47" fill="#02020C" />
<rect x="268" y="291" width="17" height="6" fill="#FBF8FB" />
<rect x="285" y="291" width="3" height="47" fill="#02020C" />
<rect x="335" y="291" width="5" height="5" fill="#02020C" />
<rect x="75" y="296" width="8" height="42" fill="#02020C" />
<rect x="301" y="296" width="9" height="6" fill="#02020C" />
<rect x="324" y="296" width="5" height="42" fill="#02020C" />
<rect x="329" y="296" width="3" height="5" fill="#FBF8FB" />
<rect x="335" y="296" width="5" height="12" fill="#FBF8FB" />
<rect x="268" y="297" width="5" height="41" fill="#02020C" />
<rect x="273" y="297" width="8" height="11" fill="#FBF8FB" />
<rect x="281" y="297" width="4" height="41" fill="#02020C" />
<rect x="192" y="298" width="12" height="40" fill="#02020C" />
<rect x="243" y="298" width="10" height="40" fill="#02020C" />
<rect x="105" y="300" width="8" height="8" fill="#FBF8FB" />
<rect x="133" y="300" width="11" height="8" fill="#FBF8FB" />
<rect x="144" y="300" width="6" height="38" fill="#02020C" />
<rect x="220" y="300" width="11" height="8" fill="#FBF8FB" />
<rect x="231" y="300" width="4" height="38" fill="#02020C" />
<rect x="329" y="301" width="3" height="37" fill="#02020C" />
<rect x="301" y="302" width="12" height="6" fill="#FBF8FB" />
<rect x="65" y="308" width="8" height="30" fill="#02020C" />
<rect x="85" y="308" width="8" height="30" fill="#02020C" />
<rect x="97" y="308" width="24" height="30" fill="#02020C" />
<rect x="125" y="308" width="19" height="30" fill="#02020C" />
<rect x="150" y="308" width="8" height="30" fill="#02020C" />
<rect x="170" y="308" width="8" height="30" fill="#02020C" />
<rect x="212" y="308" width="19" height="30" fill="#02020C" />
<rect x="235" y="308" width="8" height="30" fill="#02020C" />
<rect x="253" y="308" width="8" height="30" fill="#02020C" />
<rect x="273" y="308" width="8" height="30" fill="#02020C" />
<rect x="293" y="308" width="20" height="30" fill="#02020C" />
<rect x="316" y="308" width="8" height="30" fill="#02020C" />
<rect x="332" y="308" width="8" height="30" fill="#02020C" />
<rect x="184" y="309" width="8" height="29" fill="#02020C" />
<rect x="350" y="330" width="5" height="8" fill="#02020C" />
<rect x="24" y="338" width="11" height="14" fill="#02020C" />
<rect x="364" y="338" width="11" height="25" fill="#02020C" />
<rect x="35" y="347" width="329" height="16" fill="#02020C" />
<rect x="30" y="352" width="5" height="11" fill="#02020C" />
<rect x="375" y="352" width="1" height="11" fill="#02020C" />
</svg>