<?xml version="1.0" encoding="UTF-8" ?>
<svg version="1.1" width="400" height="400" xmlns="http://www.w3.org/2000/svg" shape-rendering="crispEdges">
<rect x="32" y="41" width="338" height="9" fill="#02020C" />
<rect x="26" y="49" width="6" height="15" fill="#02020C" />
<rect x="32" y="50" width="5" height="14" fill="#02020C" />
<rect x="365" y="50" width="11" height="13" fill="#02020C" />
<rect x="14" y="57" width="12" height="298" fill="#02020C" />
<rect x="376" y="57" width="13" height="153" fill="#02020C" />
<rect x="26" y="64" width="1" height="146" fill="#02020C" />
<rect x="169" y="76" width="62" height="8" fill="#02020C" />
<rect x="161" y="80" width="8" height="10" fill="#02020C" />
<rect x="231" y="80" width="8" height="10" fill="#02020C" />
<rect x="169" y="84" width="2" height="6" fill="#02020C" />
<rect x="171" y="84" width="59" height="14" fill="#482598" />
<rect x="230" y="84" width="1" height="6" fill="#02020C" />
<rect x="154" y="85" width="7" height="12" fill="#02020C" />
<rect x="239" y="86" width="10" height="12" fill="#02020C" />
<rect x="148" y="90" width="6" height="8" fill="#02020C" />
<rect x="161" y="90" width="1" height="7" fill="#02020C" />
<rect x="162" y="90" width="9" height="8" fill="#FBF8FB" />
<rect x="238" y="90" width="1" height="8" fill="#02020C" />
<rect x="249" y="92" width="4" height="15" fill="#02020C" />
<rect x="142" y="97" width="6" height="10" fill="#02020C" />
<rect x="154" y="97" width="8" height="6" fill="#482598" />
<rect x="253" y="97" width="7" height="10" fill="#02020C" />
<rect x="148" y="98" width="4" height="9" fill="#02020C" />
<rect x="152" y="98" width="2" height="9" fill="#482598" />
<rect x="162" y="98" width="8" height="5" fill="#482598" />
<rect x="170" y="98" width="61" height="9" fill="#02020C" />
<rect x="231" y="98" width="18" height="5" fill="#482598" />
<rect x="154" y="103" width="7" height="4" fill="#482598" />
<rect x="161" y="103" width="9" height="20" fill="#02020C" />
<rect x="231" y="103" width="6" height="15" fill="#02020C" />
<rect x="237" y="103" width="12" height="4" fill="#482598" />
<rect x="135" y="104" width="7" height="33" fill="#02020C" />
<rect x="260" y="105" width="7" height="32" fill="#02020C" />
<rect x="142" y="107" width="1" height="30" fill="#02020C" />
<rect x="143" y="107" width="4" height="19" fill="#482598" />
<rect x="147" y="107" width="11" height="7" fill="#FBF8FB" />
<rect x="170" y="107" width="60" height="20" fill="#FBF8FB" />
<rect x="230" y="107" width="1" height="11" fill="#02020C" />
<rect x="237" y="107" width="5" height="1" fill="#482598" />
<rect x="242" y="107" width="12" height="9" fill="#FBF8FB" />
<rect x="254" y="107" width="5" height="18" fill="#482598" />
<rect x="259" y="107" width="1" height="30" fill="#02020C" />
<rect x="237" y="108" width="5" height="15" fill="#02020C" />
<rect x="158" y="110" width="3" height="123" fill="#02020C" />
<rect x="147" y="114" width="3" height="12" fill="#482598" />
<rect x="150" y="114" width="8" height="12" fill="#FBF8FB" />
<rect x="242" y="116" width="6" height="9" fill="#482598" />
<rect x="248" y="116" width="6" height="1" fill="#FBF8FB" />
<rect x="248" y="117" width="2" height="8" fill="#482598" />
<rect x="250" y="117" width="4" height="2" fill="#FBF8FB" />
<rect x="230" y="118" width="3" height="9" fill="#FBF8FB" />
<rect x="233" y="118" width="4" height="5" fill="#02020C" />
<rect x="250" y="119" width="1" height="6" fill="#482598" />
<rect x="251" y="119" width="3" height="6" fill="#FBF8FB" />
<rect x="161" y="123" width="2" height="110" fill="#02020C" />
<rect x="163" y="123" width="7" height="4" fill="#FBF8FB" />
<rect x="233" y="123" width="6" height="12" fill="#FBF8FB" />
<rect x="239" y="123" width="3" height="110" fill="#02020C" />
<rect x="242" y="125" width="17" height="12" fill="#02020C" />
<rect x="267" y="125" width="6" height="12" fill="#02020C" />
<rect x="130" y="126" width="5" height="11" fill="#02020C" />
<rect x="143" y="126" width="15" height="11" fill="#02020C" />
<rect x="163" y="127" width="6" height="8" fill="#FBF8FB" />
<rect x="169" y="127" width="63" height="27" fill="#02020C" />
<rect x="232" y="127" width="1" height="8" fill="#FBF8FB" />
<rect x="124" y="135" width="6" height="50" fill="#02020C" />
<rect x="163" y="135" width="6" height="98" fill="#02020C" />
<rect x="232" y="135" width="7" height="98" fill="#02020C" />
<rect x="273" y="135" width="7" height="51" fill="#02020C" />
<rect x="130" y="137" width="20" height="11" fill="#FBF8FB" />
<rect x="150" y="137" width="8" height="56" fill="#02020C" />
<rect x="242" y="137" width="8" height="57" fill="#02020C" />
<rect x="250" y="137" width="21" height="11" fill="#FBF8FB" />
<rect x="271" y="137" width="2" height="55" fill="#02020C" />
<rect x="119" y="139" width="5" height="44" fill="#02020C" />
<rect x="280" y="142" width="4" height="40" fill="#02020C" />
<rect x="130" y="148" width="5" height="37" fill="#FBF8FB" />
<rect x="135" y="148" width="7" height="26" fill="#482598" />
<rect x="142" y="148" width="8" height="37" fill="#FBF8FB" />
<rect x="250" y="148" width="8" height="37" fill="#FBF8FB" />
<rect x="258" y="148" width="7" height="26" fill="#482598" />
<rect x="265" y="148" width="6" height="37" fill="#FBF8FB" />
<rect x="169" y="154" width="3" height="79" fill="#02020C" />
<rect x="172" y="154" width="15" height="15" fill="#FBF8FB" />
<rect x="187" y="154" width="27" height="79" fill="#02020C" />
<rect x="214" y="154" width="15" height="15" fill="#FBF8FB" />
<rect x="229" y="154" width="3" height="79" fill="#02020C" />
<rect x="172" y="169" width="15" height="64" fill="#02020C" />
<rect x="214" y="169" width="15" height="64" fill="#02020C" />
<rect x="135" y="174" width="7" height="11" fill="#FBF8FB" />
<rect x="258" y="174" width="7" height="11" fill="#FBF8FB" />
<rect x="280" y="182" width="1" height="4" fill="#02020C" />
<rect x="129" y="185" width="21" height="8" fill="#02020C" />
<rect x="250" y="185" width="21" height="9" fill="#02020C" />
<rect x="273" y="186" width="1" height="6" fill="#02020C" />
<rect x="132" y="193" width="17" height="4" fill="#02020C" />
<rect x="155" y="193" width="3" height="40" fill="#02020C" />
<rect x="242" y="194" width="6" height="39" fill="#02020C" />
<rect x="254" y="194" width="17" height="3" fill="#02020C" />
<rect x="148" y="201" width="7" height="32" fill="#02020C" />
<rect x="248" y="201" width="5" height="32" fill="#02020C" />
<rect x="142" y="207" width="6" height="26" fill="#02020C" />
<rect x="253" y="207" width="6" height="26" fill="#02020C" />
<rect x="136" y="210" width="6" height="23" fill="#02020C" />
<rect x="259" y="210" width="7" height="23" fill="#02020C" />
<rect x="376" y="210" width="12" height="145" fill="#02020C" />
<rect x="130" y="217" width="6" height="16" fill="#02020C" />
<rect x="266" y="217" width="6" height="16" fill="#02020C" />
<rect x="122" y="225" width="8" height="8" fill="#02020C" />
<rect x="272" y="225" width="10" height="8" fill="#02020C" />
<rect x="47" y="251" width="309" height="29" fill="#02020C" />
<rect x="42" y="257" width="5" height="76" fill="#02020C" />
<rect x="356" y="257" width="5" height="76" fill="#02020C" />
<rect x="41" y="260" width="1" height="73" fill="#02020C" />
<rect x="36" y="265" width="5" height="68" fill="#02020C" />
<rect x="361" y="265" width="7" height="68" fill="#02020C" />
<rect x="47" y="280" width="16" height="4" fill="#02020C" />
<rect x="63" y="280" width="19" height="6" fill="#FBF8FB" />
<rect x="82" y="280" width="4" height="60" fill="#02020C" />
<rect x="86" y="280" width="8" height="30" fill="#FBF8FB" />
<rect x="94" y="280" width="6" height="60" fill="#02020C" />
<rect x="100" y="280" width="8" height="30" fill="#FBF8FB" />
<rect x="108" y="280" width="8" height="3" fill="#02020C" />
<rect x="116" y="280" width="8" height="30" fill="#FBF8FB" />
<rect x="124" y="280" width="6" height="4" fill="#02020C" />
<rect x="130" y="280" width="18" height="6" fill="#FBF8FB" />
<rect x="148" y="280" width="5" height="12" fill="#02020C" />
<rect x="153" y="280" width="8" height="30" fill="#FBF8FB" />
<rect x="161" y="280" width="13" height="24" fill="#02020C" />
<rect x="174" y="280" width="20" height="6" fill="#FBF8FB" />
<rect x="194" y="280" width="12" height="60" fill="#02020C" />
<rect x="206" y="280" width="18" height="8" fill="#FBF8FB" />
<rect x="224" y="280" width="6" height="5" fill="#02020C" />
<rect x="230" y="280" width="8" height="30" fill="#FBF8FB" />
<rect x="238" y="280" width="16" height="4" fill="#02020C" />
<rect x="254" y="280" width="15" height="6" fill="#FBF8FB" />
<rect x="269" y="280" width="6" height="4" fill="#02020C" />
<rect x="275" y="280" width="7" height="14" fill="#FBF8FB" />
<rect x="282" y="280" width="7" height="13" fill="#02020C" />
<rect x="289" y="280" width="8" height="14" fill="#FBF8FB" />
<rect x="297" y="280" width="3" height="60" fill="#02020C" />
<rect x="300" y="280" width="18" height="6" fill="#FBF8FB" />
<rect x="318" y="280" width="4" height="60" fill="#02020C" />
<rect x="322" y="280" width="17" height="6" fill="#FBF8FB" />
<rect x="339" y="280" width="17" height="5" fill="#02020C" />
<rect x="108" y="283" width="3" height="8" fill="#FBF8FB" />
<rect x="111" y="283" width="5" height="4" fill="#02020C" />
<rect x="47" y="284" width="13" height="49" fill="#02020C" />
<rect x="60" y="284" width="3" height="10" fill="#FBF8FB" />
<rect x="124" y="284" width="2" height="56" fill="#02020C" />
<rect x="126" y="284" width="4" height="21" fill="#FBF8FB" />
<rect x="238" y="284" width="13" height="20" fill="#02020C" />
<rect x="251" y="284" width="3" height="26" fill="#FBF8FB" />
<rect x="269" y="284" width="3" height="26" fill="#FBF8FB" />
<rect x="272" y="284" width="3" height="56" fill="#02020C" />
<rect x="224" y="285" width="4" height="9" fill="#FBF8FB" />
<rect x="228" y="285" width="2" height="55" fill="#02020C" />
<rect x="339" y="285" width="4" height="9" fill="#FBF8FB" />
<rect x="343" y="285" width="13" height="2" fill="#02020C" />
<rect x="63" y="286" width="6" height="8" fill="#FBF8FB" />
<rect x="69" y="286" width="13" height="6" fill="#02020C" />
<rect x="130" y="286" width="4" height="19" fill="#FBF8FB" />
<rect x="134" y="286" width="14" height="6" fill="#02020C" />
<rect x="174" y="286" width="8" height="12" fill="#FBF8FB" />
<rect x="182" y="286" width="12" height="6" fill="#02020C" />
<rect x="254" y="286" width="4" height="24" fill="#FBF8FB" />
<rect x="258" y="286" width="8" height="8" fill="#02020C" />
<rect x="266" y="286" width="3" height="24" fill="#FBF8FB" />
<rect x="300" y="286" width="8" height="24" fill="#FBF8FB" />
<rect x="308" y="286" width="10" height="6" fill="#02020C" />
<rect x="322" y="286" width="8" height="13" fill="#FBF8FB" />
<rect x="330" y="286" width="6" height="7" fill="#02020C" />
<rect x="336" y="286" width="3" height="24" fill="#FBF8FB" />
<rect x="111" y="287" width="3" height="7" fill="#FBF8FB" />
<rect x="114" y="287" width="2" height="4" fill="#02020C" />
<rect x="343" y="287" width="1" height="7" fill="#FBF8FB" />
<rect x="344" y="287" width="12" height="53" fill="#02020C" />
<rect x="206" y="288" width="7" height="22" fill="#FBF8FB" />
<rect x="213" y="288" width="7" height="6" fill="#02020C" />
<rect x="220" y="288" width="4" height="12" fill="#FBF8FB" />
<rect x="108" y="291" width="2" height="49" fill="#02020C" />
<rect x="110" y="291" width="1" height="3" fill="#FBF8FB" />
<rect x="114" y="291" width="2" height="8" fill="#FBF8FB" />
<rect x="69" y="292" width="9" height="6" fill="#FBF8FB" />
<rect x="78" y="292" width="4" height="3" fill="#02020C" />
<rect x="134" y="292" width="5" height="12" fill="#02020C" />
<rect x="139" y="292" width="11" height="6" fill="#FBF8FB" />
<rect x="150" y="292" width="3" height="48" fill="#02020C" />
<rect x="182" y="292" width="9" height="6" fill="#FBF8FB" />
<rect x="191" y="292" width="3" height="12" fill="#02020C" />
<rect x="308" y="292" width="8" height="6" fill="#FBF8FB" />
<rect x="316" y="292" width="2" height="12" fill="#02020C" />
<rect x="282" y="293" width="7" height="6" fill="#FBF8FB" />
<rect x="330" y="293" width="6" height="6" fill="#FBF8FB" />
<rect x="60" y="294" width="5" height="10" fill="#02020C" />
<rect x="65" y="294" width="4" height="4" fill="#FBF8FB" />
<rect x="110" y="294" width="2" height="46" fill="#02020C" />
<rect x="112" y="294" width="2" height="5" fill="#FBF8FB" />
<rect x="213" y="294" width="7" height="6" fill="#FBF8FB" />
<rect x="224" y="294" width="4" height="46" fill="#02020C" />
<rect x="258" y="294" width="8" height="6" fill="#FBF8FB" />
<rect x="275" y="294" width="4" height="46" fill="#02020C" />
<rect x="279" y="294" width="3" height="5" fill="#FBF8FB" />
<rect x="289" y="294" width="5" height="5" fill="#FBF8FB" />
<rect x="294" y="294" width="3" height="46" fill="#02020C" />
<rect x="339" y="294" width="3" height="1" fill="#FBF8FB" />
<rect x="342" y="294" width="2" height="5" fill="#02020C" />
<rect x="78" y="295" width="4" height="12" fill="#FBF8FB" />
<rect x="339" y="295" width="3" height="2" fill="#02020C" />
<rect x="339" y="297" width="1" height="13" fill="#FBF8FB" />
<rect x="340" y="297" width="2" height="6" fill="#02020C" />
<rect x="65" y="298" width="11" height="6" fill="#02020C" />
<rect x="76" y="298" width="2" height="12" fill="#FBF8FB" />
<rect x="139" y="298" width="3" height="6" fill="#02020C" />
<rect x="142" y="298" width="8" height="12" fill="#FBF8FB" />
<rect x="174" y="298" width="7" height="12" fill="#FBF8FB" />
<rect x="181" y="298" width="10" height="6" fill="#02020C" />
<rect x="308" y="298" width="8" height="6" fill="#02020C" />
<rect x="112" y="299" width="4" height="41" fill="#02020C" />
<rect x="279" y="299" width="4" height="41" fill="#02020C" />
<rect x="283" y="299" width="7" height="11" fill="#FBF8FB" />
<rect x="290" y="299" width="4" height="41" fill="#02020C" />
<rect x="322" y="299" width="7" height="11" fill="#FBF8FB" />
<rect x="329" y="299" width="4" height="41" fill="#02020C" />
<rect x="333" y="299" width="3" height="4" fill="#FBF8FB" />
<rect x="342" y="299" width="2" height="11" fill="#FBF8FB" />
<rect x="213" y="300" width="11" height="40" fill="#02020C" />
<rect x="258" y="300" width="8" height="40" fill="#02020C" />
<rect x="333" y="303" width="3" height="37" fill="#02020C" />
<rect x="340" y="303" width="2" height="7" fill="#FBF8FB" />
<rect x="60" y="304" width="16" height="6" fill="#FBF8FB" />
<rect x="134" y="304" width="8" height="6" fill="#FBF8FB" />
<rect x="161" y="304" width="8" height="6" fill="#FBF8FB" />
<rect x="169" y="304" width="5" height="36" fill="#02020C" />
<rect x="181" y="304" width="13" height="6" fill="#FBF8FB" />
<rect x="238" y="304" width="9" height="6" fill="#FBF8FB" />
<rect x="247" y="304" width="4" height="36" fill="#02020C" />
<rect x="308" y="304" width="10" height="6" fill="#FBF8FB" />
<rect x="126" y="305" width="5" height="35" fill="#02020C" />
<rect x="131" y="305" width="3" height="5" fill="#FBF8FB" />
<rect x="78" y="307" width="2" height="3" fill="#FBF8FB" />
<rect x="80" y="307" width="2" height="33" fill="#02020C" />
<rect x="60" y="310" width="20" height="30" fill="#02020C" />
<rect x="86" y="310" width="8" height="30" fill="#02020C" />
<rect x="100" y="310" width="8" height="30" fill="#02020C" />
<rect x="116" y="310" width="8" height="30" fill="#02020C" />
<rect x="131" y="310" width="19" height="30" fill="#02020C" />
<rect x="153" y="310" width="16" height="30" fill="#02020C" />
<rect x="174" y="310" width="20" height="30" fill="#02020C" />
<rect x="206" y="310" width="7" height="30" fill="#02020C" />
<rect x="230" y="310" width="17" height="30" fill="#02020C" />
<rect x="251" y="310" width="7" height="30" fill="#02020C" />
<rect x="266" y="310" width="6" height="30" fill="#02020C" />
<rect x="283" y="310" width="7" height="30" fill="#02020C" />
<rect x="300" y="310" width="18" height="30" fill="#02020C" />
<rect x="322" y="310" width="7" height="30" fill="#02020C" />
<rect x="336" y="310" width="8" height="30" fill="#02020C" />
<rect x="48" y="333" width="12" height="7" fill="#02020C" />
<rect x="356" y="333" width="1" height="7" fill="#02020C" />
<rect x="26" y="351" width="350" height="15" fill="#02020C" />
<rect x="24" y="355" width="2" height="12" fill="#02020C" />
<rect x="376" y="355" width="2" height="11" fill="#02020C" />
<rect x="26" y="366" width="183" height="1" fill="#02020C" />
</svg>