<?xml version="1.0" encoding="UTF-8" ?>
<svg version="1.1" width="100" height="100" xmlns="http://www.w3.org/2000/svg" shape-rendering="crispEdges">
<rect x="12" y="20" width="77" height="10" fill="#02020C" />
<rect x="6" y="29" width="6" height="46" fill="#02020C" />
<rect x="89" y="29" width="4" height="53" fill="#02020C" />
<rect x="12" y="30" width="4" height="45" fill="#02020C" />
<rect x="16" y="30" width="11" height="33" fill="#FBF8FB" />
<rect x="27" y="30" width="10" height="31" fill="#02020C" />
<rect x="37" y="30" width="11" height="33" fill="#FBF8FB" />
<rect x="48" y="30" width="8" height="8" fill="#02020C" />
<rect x="56" y="30" width="28" height="9" fill="#FBF8FB" />
<rect x="84" y="30" width="5" height="24" fill="#02020C" />
<rect x="48" y="38" width="5" height="52" fill="#02020C" />
<rect x="53" y="38" width="3" height="12" fill="#FBF8FB" />
<rect x="56" y="39" width="9" height="11" fill="#FBF8FB" />
<rect x="65" y="39" width="19" height="9" fill="#02020C" />
<rect x="65" y="48" width="14" height="9" fill="#FBF8FB" />
<rect x="79" y="48" width="5" height="6" fill="#02020C" />
<rect x="53" y="50" width="5" height="16" fill="#02020C" />
<rect x="58" y="50" width="7" height="7" fill="#FBF8FB" />
<rect x="79" y="54" width="6" height="15" fill="#FBF8FB" />
<rect x="85" y="54" width="4" height="28" fill="#02020C" />
<rect x="58" y="57" width="15" height="9" fill="#02020C" />
<rect x="73" y="57" width="6" height="19" fill="#FBF8FB" />
<rect x="27" y="61" width="10" height="15" fill="#FBF8FB" />
<rect x="16" y="63" width="5" height="20" fill="#02020C" />
<rect x="21" y="63" width="6" height="7" fill="#FBF8FB" />
<rect x="37" y="63" width="5" height="6" fill="#FBF8FB" />
<rect x="42" y="63" width="6" height="27" fill="#02020C" />
<rect x="53" y="66" width="20" height="10" fill="#FBF8FB" />
<rect x="37" y="69" width="5" height="21" fill="#02020C" />
<rect x="79" y="69" width="6" height="13" fill="#02020C" />
<rect x="21" y="70" width="6" height="13" fill="#02020C" />
<rect x="13" y="75" width="3" height="8" fill="#02020C" />
<rect x="27" y="76" width="10" height="14" fill="#02020C" />
<rect x="53" y="76" width="26" height="14" fill="#02020C" />
<rect x="79" y="82" width="1" height="8" fill="#02020C" />
<rect x="23" y="83" width="4" height="7" fill="#02020C" />
</svg>